<svg width="259" height="50" viewBox="0 0 259 50" fill="none" xmlns="http://www.w3.org/2000/svg">
<path fill-rule="evenodd" clip-rule="evenodd" d="M132.077 0H132.97C133.251 0.094484 133.502 0.25482 133.707 0.386014C133.729 0.39976 133.75 0.413186 133.77 0.426183C133.847 0.42299 133.89 0.405015 133.94 0.383956C134.011 0.354173 134.096 0.318222 134.315 0.30919C134.449 0.420453 134.429 0.465895 134.401 0.528696C134.384 0.567509 134.364 0.612951 134.376 0.68466C134.907 0.79176 135.357 0.882615 135.769 1H121.278C121.277 0.640807 122.12 0.34959 122.526 0.607097C122.974 0.588596 123.352 0.512487 123.73 0.436379C124.298 0.322215 124.866 0.208051 125.668 0.288316C125.719 0.182001 125.798 0.0873209 125.895 0H129.627C129.615 0.0418514 129.601 0.0841435 129.587 0.126436C129.783 0.118338 129.816 0.0648231 129.855 0H130.318C130.318 0.000570356 130.318 0.00114074 130.318 0.00171112V0.0017339C130.334 0.00107687 130.35 0.000501833 130.366 0H131.808C131.849 0.0188742 131.911 0.0304428 132.013 0.0262243C132.035 0.0168014 132.056 0.00806854 132.077 0ZM115.941 0H116.093C116.328 0.216363 116.662 0.265177 116.804 0.0874164C117.269 0.635203 118.404 0.682819 119.338 0.644276C119.431 0.640421 119.439 0.687354 119.446 0.734287C119.454 0.781222 119.462 0.828156 119.555 0.824302C119.726 0.722726 120.115 0.801176 120.332 0.981202C120.498 0.930499 120.638 0.962276 120.775 1H94.3224C94.3028 0.680173 94.2843 0.337627 94.3589 0H100.317C100.442 0.0830257 100.571 0.149552 100.623 0.137496C100.595 0.251461 100.778 0.383917 100.975 0.52662C101.106 0.621086 101.242 0.720042 101.328 0.821097C101.422 0.817242 101.414 0.770308 101.406 0.723373C101.398 0.67644 101.391 0.629507 101.484 0.625653L101.857 0.610236C102.1 0.811098 102.488 0.829484 102.921 0.850015C103.265 0.866287 103.637 0.883906 103.987 0.994778C104.329 0.921339 104.591 0.81395 104.828 0.71714C104.968 0.659726 105.099 0.606033 105.232 0.565349C105.326 0.561495 105.329 0.584962 105.335 0.620162C105.341 0.655363 105.349 0.702296 105.45 0.745375C105.535 0.694587 105.671 0.665339 105.807 0.636091C105.944 0.606843 106.08 0.577594 106.165 0.526806C106.367 0.612965 106.461 0.60911 106.531 0.60622C106.601 0.603329 106.647 0.601402 106.756 0.691415C106.88 0.686276 106.825 0.604551 106.77 0.522826C106.743 0.481964 106.715 0.441102 106.71 0.409813C106.967 0.257449 107.25 0.263486 107.532 0.269524C107.627 0.271536 107.721 0.273548 107.814 0.269694C107.827 0.349039 107.801 0.396226 107.783 0.43077C107.757 0.477958 107.744 0.501552 107.86 0.551296C108.091 0.541768 108.173 0.502274 108.287 0.447695C108.357 0.413964 108.44 0.37447 108.576 0.332727C109.182 0.591203 110.722 0.811136 111.624 0.584859C111.616 0.537925 111.566 0.516385 111.515 0.494846C111.465 0.473306 111.414 0.451766 111.407 0.404833C112.107 0.0923965 113.086 0.335455 113.521 0.695507C113.653 0.642793 113.785 0.584212 113.916 0.525632C114.31 0.349885 114.704 0.174138 115.124 0.156793C115.285 0.150149 115.296 0.0794931 115.286 0H115.532C115.556 0.00810615 115.577 0.0166781 115.598 0.0248899C115.709 0.0687199 115.794 0.102289 115.941 0ZM100.623 0.137496C100.641 0.133275 100.649 0.119426 100.645 0.0932844C100.634 0.107686 100.626 0.122429 100.623 0.137496ZM83.8408 0H84.3757C85.0655 0.0926856 85.144 0.581358 84.9081 1H1V49H28.5189C28.5518 49.0035 28.5868 49.0054 28.624 49.0054C28.5138 49.1163 28.5983 49.2925 28.6864 49.4763C28.748 49.6047 28.8113 49.7369 28.8113 49.8531C28.9797 49.8531 29.1102 49.777 29.2539 49.6932C29.4299 49.5905 29.6256 49.4763 29.9349 49.4763C29.7476 49.4763 30.3094 49.6647 30.3094 49.6647C30.5405 49.6647 30.8032 49.6329 31.0585 49.6019L31.0586 49.6019C31.424 49.5576 31.7743 49.5151 31.9948 49.5705C32.1197 49.6019 32.2237 49.6438 32.3277 49.6856L32.3278 49.6856C32.5358 49.7694 32.7439 49.8531 33.1184 49.8531C33.6802 49.6647 34.0548 49.5705 34.8038 49.6647C34.9287 49.4135 35.3865 49.4135 35.8442 49.4135C36.0731 49.4135 36.302 49.4135 36.4893 49.3822C37.2017 49.4717 37.9141 49.7317 38.3043 50H1H0V49V1V0H1H45.8457C46.0181 0.069626 46.1962 0.133716 46.3712 0.196688C46.5762 0.270489 46.777 0.342755 46.9595 0.420595C46.7267 0.146702 47.6599 0.108159 47.8619 0.194318C48.0052 0.064176 48.1992 0.0226594 48.4006 0H49.3693C49.497 0.0879476 49.628 0.196445 49.759 0.304945L49.7591 0.304967C50.7603 0.387798 51.4866 0.277996 51.9953 0H56.8729C56.9405 0.0233614 57.0013 0.055207 57.0532 0.0981986L57.0533 0.0981966C57.1607 0.0653949 57.2681 0.0325932 57.3705 0H59.7732C59.9827 0.0336796 60.2224 0.0277226 60.4523 0H60.8491C61.1616 0.242943 61.6375 0.15153 62.1325 0.056466C62.2348 0.0368281 62.3378 0.0170344 62.4404 0H62.932C63.0674 0.0620276 63.2864 0.0919295 63.518 0.123532C63.7682 0.15768 64.0329 0.193814 64.2224 0.274609C64.3913 0.174407 64.6022 0.0826884 64.842 0H79.2633C79.2619 0.00789438 79.2604 0.0158679 79.2589 0.0239099C79.2472 0.0871484 79.2347 0.154621 79.2456 0.221125C79.3566 0.155251 79.4677 0.0893757 79.5237 0H83.4491C83.4752 0.0144521 83.504 0.0292502 83.5382 0.0438277C83.6457 0.0242087 83.7464 0.00974351 83.8408 0ZM161.688 1C161.731 0.867525 162.004 0.901167 162.216 0.927225C162.297 0.937173 162.369 0.946015 162.416 0.944088C162.758 0.740936 163.318 0.717811 163.878 0.694685C164.438 0.671559 164.998 0.648433 165.34 0.445282C165.235 0.508059 165.337 0.526149 165.478 0.551149C165.565 0.5666 165.667 0.58469 165.745 0.617599C165.834 0.590278 165.936 0.568342 166.038 0.546406C166.344 0.480597 166.651 0.414788 166.616 0.203587C166.803 0.195879 166.989 0.18817 167.02 0.375904C167.176 0.180461 168.078 -0.045816 168.14 0.329653C168.525 0.2332 168.986 0.185112 169.442 0.137484C169.806 0.0994775 170.168 0.0617638 170.485 0H195.997C196.037 0.0347992 196.072 0.0742864 196.103 0.119746C196.415 0.145551 196.68 0.0782559 196.95 0H258H259V1V49V50H258H226.264C226.656 49.9228 227 49.8177 227.191 49.625C227.285 49.6721 227.426 49.6721 227.543 49.6721C227.66 49.6721 227.753 49.6721 227.753 49.7192C227.941 49.3414 228.552 49.1294 229.304 49H258V1H161.688ZM50.7215 49.0054L50.6996 49H48.0041C47.946 49.0513 47.9125 49.1141 47.9125 49.1938C47.5915 49.14 47.2705 49.2092 46.9494 49.2784L46.9494 49.2784C46.7086 49.3303 46.4679 49.3822 46.2271 49.3822C46.3676 49.2409 46.192 49.2585 46.0165 49.2762C45.9579 49.2821 45.8994 49.288 45.8526 49.288C45.8526 49.288 46.0399 49.1938 45.8526 49.0996C45.7021 49.0744 45.5651 49.0559 45.4379 49.0388L45.4377 49.0387L45.4375 49.0387C45.3419 49.0258 45.2519 49.0137 45.1659 49H44.2698C44.1672 49.1522 44.1672 49.354 44.1672 49.4763C43.9425 49.4763 43.7178 49.5781 43.493 49.6798C43.3432 49.7476 43.1934 49.8154 43.0436 49.8531C42.95 49.8531 42.8563 49.8295 42.7627 49.806C42.6691 49.7824 42.5754 49.7589 42.4818 49.7589C42.4474 49.7935 42.4194 49.8249 42.3941 49.8531C42.3346 49.9198 42.2908 49.9687 42.2171 50H65.8339C65.7271 49.9364 65.6204 49.8596 65.5136 49.7522C65.3423 49.7522 65.2003 49.7572 65.0788 49.7614L65.0788 49.7614C64.6691 49.7756 64.4916 49.7818 64.2028 49.5639C63.4537 49.7522 63.0792 49.8464 61.9556 49.6581C61.8619 49.611 61.8619 49.5403 61.8619 49.4697C61.8619 49.399 61.8619 49.3284 61.7683 49.2813C61.7683 49.2342 61.8619 49.2107 61.9556 49.1871C62.0492 49.1636 62.1428 49.14 62.1428 49.0929L61.958 49H61.9303C61.833 49.0099 61.791 49.0783 61.7345 49.1701L61.7345 49.1702C61.6967 49.2316 61.6525 49.3036 61.581 49.3755C61.2886 49.302 61.2245 49.3433 61.1213 49.4097C61.0923 49.4284 61.0603 49.449 61.0192 49.4697C60.3304 49.1727 59.5899 49.3179 58.8248 49.4679C58.1339 49.6033 57.423 49.7426 56.7121 49.5639C56.7121 49.611 56.6185 49.6581 56.5248 49.7051C56.4312 49.7522 56.3376 49.7993 56.3376 49.8464C56.0098 49.8052 55.8254 49.7099 55.6433 49.6157C55.4092 49.4947 55.1787 49.3755 54.6522 49.3755C54.6522 49.2813 54.5585 49.2342 54.4649 49.1871C54.3717 49.1402 54.2784 49.0934 54.2776 49H54.2739C54.115 49.0524 53.9712 49.0446 53.8467 49H50.7426L50.7215 49.0054ZM165.426 50H67.9513C67.9916 49.7853 68.3999 49.6326 68.7959 49.4846C69.0523 49.3887 69.3036 49.2947 69.4462 49.1871C69.4462 49.4214 69.8325 49.3967 70.0712 49.3814C70.1204 49.3782 70.1633 49.3755 70.1953 49.3755C70.1405 49.4307 70.0856 49.4697 70.0402 49.502C69.9305 49.58 69.8756 49.619 70.008 49.7522H71.6935C71.6935 49.6356 71.8211 49.5671 71.9579 49.4937C72.1521 49.3896 72.3646 49.2756 72.2557 49H74.3152V49.0929L74.3828 49.0702C74.4461 49.0488 74.5167 49.025 74.5934 49H161.191C161.875 49.1928 162.417 49.4045 162.959 49.8134H163.146C163.521 49.8134 163.333 49.625 163.333 49.625C163.411 49.625 163.489 49.6574 163.579 49.6952C163.708 49.7488 163.863 49.8134 164.082 49.8134C164.474 49.8134 164.932 49.8973 165.426 50ZM173.573 50H172.316C172.66 49.9559 172.962 49.8685 173.071 49.8134C173.259 49.7663 173.305 49.8134 173.352 49.8605C173.399 49.9076 173.446 49.9547 173.633 49.9076C173.633 49.939 173.612 49.9599 173.591 49.9809C173.585 49.9871 173.579 49.9934 173.573 50ZM191.607 50H190.093C190.529 49.9934 190.941 49.9619 191.236 49.8134C191.12 49.8716 191.219 49.8939 191.356 49.9246C191.439 49.9433 191.536 49.9651 191.607 50ZM220.069 50H191.618C191.71 49.9773 191.812 49.9601 191.915 49.9429C192.231 49.8899 192.547 49.837 192.547 49.625C192.734 49.625 192.922 49.625 192.922 49.8134C193.109 49.625 194.045 49.4367 194.045 49.8134C194.444 49.7331 194.911 49.7042 195.374 49.6755C195.997 49.6369 196.612 49.5988 197.041 49.4367C197.576 49.5443 198.112 49.5289 198.647 49.5136C199.048 49.502 199.449 49.4905 199.85 49.5309C200.496 49.1414 201.497 49.244 202.486 49.3455C202.932 49.3912 203.376 49.4367 203.783 49.4367C203.877 49.4367 203.877 49.4602 203.877 49.4955C203.877 49.5309 203.877 49.578 203.97 49.625C204.396 49.4822 204.715 49.4477 205.17 49.3983L205.171 49.3982C205.316 49.3825 205.475 49.3652 205.656 49.3425C205.988 49.4677 206.393 49.408 206.775 49.3518C207.254 49.2812 207.694 49.2162 207.903 49.5309C208.277 49.5309 208.465 49.5309 208.465 49.4367C208.652 49.4367 208.652 49.625 208.652 49.8134C208.938 49.8134 208.896 49.7035 208.861 49.6096C208.85 49.5806 208.839 49.5531 208.839 49.5309C209.027 49.5309 209.027 49.625 209.027 49.7192C209.214 49.7192 209.214 49.625 209.214 49.5309C209.426 49.5309 209.579 49.6219 209.739 49.7179C209.861 49.791 209.988 49.8669 210.15 49.9076C210.533 49.9076 211.004 49.8419 211.517 49.7702C212.508 49.6317 213.657 49.471 214.645 49.7192L215.206 49.4367C215.3 49.4367 215.3 49.4602 215.3 49.4955C215.3 49.5309 215.3 49.578 215.394 49.625C215.841 49.2877 216.288 49.3196 216.855 49.36C217.237 49.3872 217.674 49.4184 218.203 49.3425C218.203 49.6489 218.808 49.7338 219.333 49.8073C219.681 49.8561 219.993 49.8999 220.069 50Z" fill="white" fill-opacity="0.3"/>
</svg>
