<svg xmlns="http://www.w3.org/2000/svg" xmlns:xlink="http://www.w3.org/1999/xlink"><symbol viewBox="0 0 15 14" fill="none" id="clock" xmlns="http://www.w3.org/2000/svg">
  <g clip-path="url(#aclip0_2_376)">
    <path d="M7.49999 12.8334C4.27824 12.8334 1.66666 10.2218 1.66666 7.00008C1.66666 3.77833 4.27824 1.16675 7.49999 1.16675C10.7217 1.16675 13.3333 3.77833 13.3333 7.00008C13.3333 10.2218 10.7217 12.8334 7.49999 12.8334ZM7.49999 11.6667C8.73767 11.6667 9.92465 11.1751 10.7998 10.2999C11.675 9.42474 12.1667 8.23776 12.1667 7.00008C12.1667 5.7624 11.675 4.57542 10.7998 3.70025C9.92465 2.82508 8.73767 2.33341 7.49999 2.33341C6.26231 2.33341 5.07533 2.82508 4.20016 3.70025C3.32499 4.57542 2.83332 5.7624 2.83332 7.00008C2.83332 8.23776 3.32499 9.42474 4.20016 10.2999C5.07533 11.1751 6.26231 11.6667 7.49999 11.6667ZM8.08332 7.00008H10.4167V8.16675H6.91666V4.08341H8.08332V7.00008Z" fill="currentColor"/>
  </g>
  <defs>
    <clipPath id="aclip0_2_376">
      <rect width="14" height="14" transform="translate(0.5)" fill="currentColor"/>
    </clipPath>
  </defs>
</symbol><symbol viewBox="0 0 24 25" fill="none" id="facebook" xmlns="http://www.w3.org/2000/svg">
<path d="M14 14.207H16.5L17.5 10.207H14V8.20703C14 7.17703 14 6.20703 16 6.20703H17.5V2.84703C17.174 2.80403 15.943 2.70703 14.643 2.70703C11.928 2.70703 10 4.36403 10 7.40703V10.207H7V14.207H10V22.707H14V14.207Z" fill="currentColor"/>
</symbol><symbol viewBox="0 0 24 25" fill="none" id="instagram" xmlns="http://www.w3.org/2000/svg">
<path d="M12 2.70703C14.717 2.70703 15.056 2.71703 16.122 2.76703C17.187 2.81703 17.912 2.98403 18.55 3.23203C19.21 3.48603 19.766 3.83003 20.322 4.38503C20.8305 4.88493 21.224 5.48962 21.475 6.15703C21.722 6.79403 21.89 7.52003 21.94 8.58503C21.987 9.65103 22 9.99003 22 12.707C22 15.424 21.99 15.763 21.94 16.829C21.89 17.894 21.722 18.619 21.475 19.257C21.2247 19.9248 20.8311 20.5296 20.322 21.029C19.822 21.5374 19.2173 21.9308 18.55 22.182C17.913 22.429 17.187 22.597 16.122 22.647C15.056 22.694 14.717 22.707 12 22.707C9.283 22.707 8.944 22.697 7.878 22.647C6.813 22.597 6.088 22.429 5.45 22.182C4.78233 21.9315 4.17753 21.538 3.678 21.029C3.16941 20.5292 2.77593 19.9245 2.525 19.257C2.277 18.62 2.11 17.894 2.06 16.829C2.013 15.763 2 15.424 2 12.707C2 9.99003 2.01 9.65103 2.06 8.58503C2.11 7.51903 2.277 6.79503 2.525 6.15703C2.77524 5.48921 3.1688 4.88435 3.678 4.38503C4.17767 3.87626 4.78243 3.48276 5.45 3.23203C6.088 2.98403 6.812 2.81703 7.878 2.76703C8.944 2.72003 9.283 2.70703 12 2.70703ZM12 7.70703C10.6739 7.70703 9.40215 8.23382 8.46447 9.1715C7.52678 10.1092 7 11.3809 7 12.707C7 14.0331 7.52678 15.3049 8.46447 16.2426C9.40215 17.1802 10.6739 17.707 12 17.707C13.3261 17.707 14.5979 17.1802 15.5355 16.2426C16.4732 15.3049 17 14.0331 17 12.707C17 11.3809 16.4732 10.1092 15.5355 9.1715C14.5979 8.23382 13.3261 7.70703 12 7.70703ZM18.5 7.45703C18.5 7.12551 18.3683 6.80757 18.1339 6.57315C17.8995 6.33873 17.5815 6.20703 17.25 6.20703C16.9185 6.20703 16.6005 6.33873 16.3661 6.57315C16.1317 6.80757 16 7.12551 16 7.45703C16 7.78855 16.1317 8.10649 16.3661 8.34091C16.6005 8.57534 16.9185 8.70703 17.25 8.70703C17.5815 8.70703 17.8995 8.57534 18.1339 8.34091C18.3683 8.10649 18.5 7.78855 18.5 7.45703ZM12 9.70703C12.7956 9.70703 13.5587 10.0231 14.1213 10.5857C14.6839 11.1483 15 11.9114 15 12.707C15 13.5027 14.6839 14.2657 14.1213 14.8284C13.5587 15.391 12.7956 15.707 12 15.707C11.2044 15.707 10.4413 15.391 9.87868 14.8284C9.31607 14.2657 9 13.5027 9 12.707C9 11.9114 9.31607 11.1483 9.87868 10.5857C10.4413 10.0231 11.2044 9.70703 12 9.70703Z" fill="currentColor"/>
</symbol><symbol viewBox="0 0 24 25" fill="none" id="linkedin" xmlns="http://www.w3.org/2000/svg">
<g clip-path="url(#dclip0_2813_648)">
<path d="M6.94 5.70705C6.93974 6.23749 6.72877 6.74609 6.35351 7.12098C5.97825 7.49586 5.46944 7.70632 4.939 7.70606C4.40857 7.70579 3.89997 7.49482 3.52508 7.11956C3.1502 6.7443 2.93974 6.23549 2.94 5.70505C2.94027 5.17462 3.15124 4.66602 3.5265 4.29113C3.90176 3.91625 4.41057 3.70579 4.941 3.70605C5.47144 3.70632 5.98004 3.91729 6.35492 4.29255C6.72981 4.66781 6.94027 5.17662 6.94 5.70705ZM7 9.18705H3V21.7071H7V9.18705ZM13.32 9.18705H9.34V21.7071H13.28V15.1371C13.28 11.4771 18.05 11.1371 18.05 15.1371V21.7071H22V13.7771C22 7.60705 14.94 7.83706 13.28 10.8671L13.32 9.18705Z" fill="currentColor"/>
</g>
<defs>
<clipPath id="dclip0_2813_648">
<rect width="24" height="24" transform="translate(0 0.707031)" fill="currentColor"/>
</clipPath>
</defs>
</symbol><symbol viewBox="0 0 24 24" fill="none" id="location" xmlns="http://www.w3.org/2000/svg">         <path d="M12 23.7279L5.636 17.3639C4.37734 16.1052 3.52019 14.5016 3.17293 12.7558C2.82567 11.0099 3.00391 9.20035 3.6851 7.55582C4.36629 5.91129 5.51984 4.50569 6.99988 3.51677C8.47992 2.52784 10.22 2 12 2C13.78 2 15.5201 2.52784 17.0001 3.51677C18.4802 4.50569 19.6337 5.91129 20.3149 7.55582C20.9961 9.20035 21.1743 11.0099 20.8271 12.7558C20.4798 14.5016 19.6227 16.1052 18.364 17.3639L12 23.7279ZM16.95 15.9499C17.9289 14.9709 18.5955 13.7236 18.8656 12.3658C19.1356 11.0079 18.9969 9.60052 18.4671 8.32148C17.9373 7.04244 17.04 5.94923 15.8889 5.18009C14.7378 4.41095 13.3844 4.00043 12 4.00043C10.6156 4.00043 9.26222 4.41095 8.11109 5.18009C6.95996 5.94923 6.06275 7.04244 5.53292 8.32148C5.00308 9.60052 4.86442 11.0079 5.13445 12.3658C5.40449 13.7236 6.07111 14.9709 7.05 15.9499L12 20.8999L16.95 15.9499ZM12 12.9999C11.4696 12.9999 10.9609 12.7892 10.5858 12.4141C10.2107 12.0391 10 11.5304 10 10.9999C10 10.4695 10.2107 9.96078 10.5858 9.58571C10.9609 9.21064 11.4696 8.99992 12 8.99992C12.5304 8.99992 13.0391 9.21064 13.4142 9.58571C13.7893 9.96078 14 10.4695 14 10.9999C14 11.5304 13.7893 12.0391 13.4142 12.4141C13.0391 12.7892 12.5304 12.9999 12 12.9999Z" fill="currentColor"/></symbol><symbol viewBox="0 0 24 25" fill="none" id="pinterest" xmlns="http://www.w3.org/2000/svg"><path d="M13.37 2.80111C10.9772 2.47196 8.54622 3.01966 6.5258 4.34307C4.50538 5.66647 3.03202 7.67621 2.37777 10.0012C1.72353 12.3261 1.93258 14.8093 2.96634 16.9922C4.00009 19.175 5.78873 20.9101 8.00197 21.8771C7.94212 21.1089 7.99706 20.3361 8.16497 19.5841C8.34997 18.7451 9.46097 14.1211 9.46097 14.1211C9.23974 13.6252 9.12918 13.0871 9.13697 12.5441C9.13697 11.0591 9.99397 9.95111 11.06 9.95111C11.2515 9.94832 11.4413 9.9868 11.6166 10.0639C11.792 10.1411 11.9486 10.2551 12.0759 10.3981C12.2032 10.5412 12.2983 10.71 12.3545 10.8931C12.4108 11.0762 12.427 11.2692 12.402 11.4591C12.402 12.3591 11.824 13.7211 11.522 14.9991C11.4623 15.2335 11.4585 15.4786 11.5109 15.7147C11.5633 15.9508 11.6705 16.1713 11.8237 16.3584C11.977 16.5456 12.172 16.6941 12.3932 16.792C12.6144 16.8899 12.8554 16.9344 13.097 16.9221C14.995 16.9221 16.267 14.4911 16.267 11.6211C16.267 9.42111 14.81 7.77311 12.124 7.77311C11.4813 7.74814 10.8404 7.85403 10.2399 8.08436C9.63946 8.31469 9.09209 8.66465 8.63102 9.113C8.16996 9.56134 7.80483 10.0987 7.5578 10.6925C7.31076 11.2863 7.18698 11.924 7.19397 12.5671C7.16534 13.2804 7.39548 13.9801 7.84197 14.5371C7.92541 14.5994 7.98633 14.6871 8.01555 14.787C8.04477 14.887 8.04071 14.9937 8.00397 15.0911C7.95797 15.2751 7.84197 15.7141 7.79597 15.8751C7.7864 15.9297 7.76415 15.9813 7.731 16.0257C7.69784 16.0701 7.65472 16.1062 7.6051 16.1309C7.55549 16.1556 7.50076 16.1683 7.44533 16.168C7.3899 16.1677 7.33531 16.1544 7.28597 16.1291C5.90197 15.5751 5.24997 14.0521 5.24997 12.3131C5.24997 9.46611 7.63397 6.05811 12.404 6.05811C16.2 6.05811 18.724 8.83511 18.724 11.8051C18.724 15.7141 16.547 18.6531 13.33 18.6531C12.8492 18.6685 12.3722 18.5624 11.9433 18.3446C11.5144 18.1268 11.1473 17.8044 10.876 17.4071C10.876 17.4071 10.298 19.7231 10.184 20.1611C9.95127 20.9178 9.60788 21.6359 9.16497 22.2921C10.088 22.5721 11.047 22.7121 12.011 22.7081C13.3246 22.7092 14.6254 22.4511 15.8391 21.9487C17.0528 21.4463 18.1555 20.7094 19.084 19.7802C20.0126 18.8511 20.7487 17.7479 21.2502 16.5338C21.7518 15.3198 22.0089 14.0187 22.007 12.7051C22.0057 10.2901 21.1308 7.9571 19.5436 6.13689C17.9564 4.31667 15.7643 3.13217 13.372 2.80211L13.37 2.80111Z" fill="currentColor"/></symbol><symbol viewBox="0 0 22 23" fill="none" id="united-kingdom" xmlns="http://www.w3.org/2000/svg"><g clip-path="url(#gclip0_132_166)">
<path d="M22 4.1665H0V18.8333H22V4.1665Z" fill="#F0F0F0"/>
<path d="M12.375 4.1665H9.625V10.1248H0V12.8748H9.625V18.8331H12.375V12.8748H22V10.1248H12.375V4.1665Z" fill="#E50012"/>
<path d="M16.9207 14.0503L22.0003 16.8723V14.0503H16.9207Z" fill="#0052B4"/>
<path d="M13.3914 14.0503L22.0001 18.8329V17.4805L15.8258 14.0503H13.3914Z" fill="#0052B4"/>
<path d="M19.7071 18.8332L13.3914 15.3242V18.8332H19.7071Z" fill="#0052B4"/>
<path d="M13.3914 14.0503L22.0001 18.8329V17.4805L15.8258 14.0503H13.3914Z" fill="#F0F0F0"/>
<path d="M13.3914 14.0503L22.0001 18.8329V17.4805L15.8258 14.0503H13.3914Z" fill="#E50012"/>
<path d="M3.88184 14.0503L0 16.2069V14.0503H3.88184Z" fill="#0052B4"/>
<path d="M8.60848 14.6582V18.8327H1.09509L8.60848 14.6582Z" fill="#0052B4"/>
<path d="M6.17431 14.0503L0 17.4805V18.8329L8.6087 14.0503H6.17431Z" fill="#E50012"/>
<path d="M5.07955 8.94897L0 6.12695V8.94897H5.07955Z" fill="#0052B4"/>
<path d="M8.6087 8.9491L0 4.1665V5.5189L6.17431 8.9491H8.6087Z" fill="#0052B4"/>
<path d="M2.29285 4.1665L8.60848 7.6755V4.1665H2.29285Z" fill="#0052B4"/>
<path d="M8.6087 8.9491L0 4.1665V5.5189L6.17431 8.9491H8.6087Z" fill="#F0F0F0"/>
<path d="M8.6087 8.9491L0 4.1665V5.5189L6.17431 8.9491H8.6087Z" fill="#E50012"/>
<path d="M18.1184 8.94908L22.0002 6.79248V8.94908H18.1184Z" fill="#0052B4"/>
<path d="M13.3914 8.34095V4.1665H20.9048L13.3914 8.34095Z" fill="#0052B4"/>
<path d="M15.8258 8.9491L22.0001 5.5189V4.1665L13.3914 8.9491H15.8258Z" fill="#E50012"/>
</g>
<defs>
<clipPath id="gclip0_132_166">
<rect width="22" height="22" transform="translate(0 0.5)" fill="currentColor"/>
</clipPath>
</defs>
</symbol><symbol viewBox="0 0 42 14" fill="none" id="visa" xmlns="http://www.w3.org/2000/svg">
<path fill-rule="evenodd" clip-rule="evenodd" d="M19.6367 13.0056C20.4666 13.6273 21.9269 14 23.5421 14C26.8941 14 29.143 12.1069 29.143 9.29049C29.143 7.75094 28.243 6.52855 26.3985 5.56022C25.3615 4.98207 24.7361 4.59189 24.7361 4.10128C24.7361 3.64239 25.2197 3.14716 26.3595 3.14716C27.4686 3.14716 28.3246 3.58094 28.4806 3.6675L28.8849 3.88984L30.0165 0.858316L29.7185 0.695109C28.8744 0.22928 27.8221 0 26.5082 0C23.298 0 21.0564 1.87389 21.0564 4.55687C21.0564 6.50411 22.5876 7.58477 23.9306 8.30862C25.1969 8.96375 25.4441 9.3384 25.4441 9.76425C25.4441 10.579 24.561 10.871 23.8064 10.871C22.8202 10.871 21.7941 10.5909 20.9899 10.1095L20.5902 9.86931L19.3926 12.8206L19.6367 13.0056ZM4.0732 13.806L2.54092 2.82165L6.2593 5.1584L0 0.205408H6.01581L6.6237 6.66458C6.69936 7.43304 6.76213 8.18629 6.81994 8.96069C7.13314 8.21801 7.49722 7.40694 7.91944 6.51195L10.9001 0.205078H14.8573L7.84014 13.806H4.0732ZM20.1395 0.205078L17.5596 13.8057H14.0146L16.5982 0.205078H20.1395ZM34.0811 10.4824L32.5594 13.806H28.7637L35.3838 0.205078H39.4996L41.0947 13.806H37.4153L37.1493 10.4824H34.0811ZM36.6868 4.38631C36.5451 4.75039 36.3994 5.09563 36.2576 5.40189L35.2467 7.6002H36.967L36.7565 5.27436C36.7458 5.12526 36.7328 4.9637 36.719 4.79259C36.7085 4.66228 36.6975 4.52643 36.6868 4.38631Z" fill-opacity="0.5" fill="currentColor"/>
</symbol><symbol viewBox="0 0 24 25" fill="none" id="youtube" xmlns="http://www.w3.org/2000/svg">
<path d="M21.5879 7.8982C21.3575 7.04138 20.6819 6.36597 19.8252 6.13525C18.2602 5.70703 11.9998 5.70703 11.9998 5.70703C11.9998 5.70703 5.73963 5.70703 4.17456 6.11902C3.33435 6.34949 2.64234 7.04151 2.41187 7.8982C2 9.46314 2 12.7086 2 12.7086C2 12.7086 2 15.9705 2.41187 17.5191C2.64258 18.3758 3.31787 19.0512 4.17469 19.2819C5.75611 19.7102 12 19.7102 12 19.7102C12 19.7102 18.2602 19.7102 19.8252 19.2982C20.682 19.0677 21.3575 18.3922 21.5882 17.5355C21.9999 15.9705 21.9999 12.7251 21.9999 12.7251C21.9999 12.7251 22.0164 9.46314 21.5879 7.8982ZM10.0066 15.7069V9.71034L15.2124 12.7086L10.0066 15.7069Z" fill="currentColor"/>
</symbol></svg>