<svg xmlns="http://www.w3.org/2000/svg" style="display: none;">
<symbol id="icon-location" viewBox="0 0 24 24"><path d="M12 23.7279L5.636 17.3639C4.37734 16.1052 3.52019 14.5016 3.17293 12.7558C2.82567 11.0099 3.00391 9.20035 3.6851 7.55582C4.36629 5.91129 5.51984 4.50569 6.99988 3.51677C8.47992 2.52784 10.22 2 12 2C13.78 2 15.5201 2.52784 17.0001 3.51677C18.4802 4.50569 19.6337 5.91129 20.3149 7.55582C20.9961 9.20035 21.1743 11.0099 20.8271 12.7558C20.4798 14.5016 19.6227 16.1052 18.364 17.3639L12 23.7279ZM16.95 15.9499C17.9289 14.9709 18.5955 13.7236 18.8656 12.3658C19.1356 11.0079 18.9969 9.60052 18.4671 8.32148C17.9373 7.04244 17.04 5.94923 15.8889 5.18009C14.7378 4.41095 13.3844 4.00043 12 4.00043C10.6156 4.00043 9.26222 4.41095 8.11109 5.18009C6.95996 5.94923 6.06275 7.04244 5.53292 8.32148C5.00308 9.60052 4.86442 11.0079 5.13445 12.3658C5.40449 13.7236 6.07111 14.9709 7.05 15.9499L12 20.8999L16.95 15.9499ZM12 12.9999C11.4696 12.9999 10.9609 12.7892 10.5858 12.4141C10.2107 12.0391 10 11.5304 10 10.9999C10 10.4695 10.2107 9.96078 10.5858 9.58571C10.9609 9.21064 11.4696 8.99992 12 8.99992C12.5304 8.99992 13.0391 9.21064 13.4142 9.58571C13.7893 9.96078 14 10.4695 14 10.9999C14 11.5304 13.7893 12.0391 13.4142 12.4141C13.0391 12.7892 12.5304 12.9999 12 12.9999Z"
              fill="currentColor" /></symbol>
<symbol id="icon-visa" viewBox="0 0 42 14"><path fill-rule="evenodd" clip-rule="evenodd" d="M19.6367 13.0056C20.4666 13.6273 21.9269 14 23.5421 14C26.8941 14 29.143 12.1069 29.143 9.29049C29.143 7.75094 28.243 6.52855 26.3985 5.56022C25.3615 4.98207 24.7361 4.59189 24.7361 4.10128C24.7361 3.64239 25.2197 3.14716 26.3595 3.14716C27.4686 3.14716 28.3246 3.58094 28.4806 3.6675L28.8849 3.88984L30.0165 0.858316L29.7185 0.695109C28.8744 0.22928 27.8221 0 26.5082 0C23.298 0 21.0564 1.87389 21.0564 4.55687C21.0564 6.50411 22.5876 7.58477 23.9306 8.30862C25.1969 8.96375 25.4441 9.3384 25.4441 9.76425C25.4441 10.579 24.561 10.871 23.8064 10.871C22.8202 10.871 21.7941 10.5909 20.9899 10.1095L20.5902 9.86931L19.3926 12.8206L19.6367 13.0056ZM4.0732 13.806L2.54092 2.82165L6.2593 5.1584L0 0.205408H6.01581L6.6237 6.66458C6.69936 7.43304 6.76213 8.18629 6.81994 8.96069C7.13314 8.21801 7.49722 7.40694 7.91944 6.51195L10.9001 0.205078H14.8573L7.84014 13.806H4.0732ZM20.1395 0.205078L17.5596 13.8057H14.0146L16.5982 0.205078H20.1395ZM34.0811 10.4824L32.5594 13.806H28.7637L35.3838 0.205078H39.4996L41.0947 13.806H37.4153L37.1493 10.4824H34.0811ZM36.6868 4.38631C36.5451 4.75039 36.3994 5.09563 36.2576 5.40189L35.2467 7.6002H36.967L36.7565 5.27436C36.7458 5.12526 36.7328 4.9637 36.719 4.79259C36.7085 4.66228 36.6975 4.52643 36.6868 4.38631Z" fill="currentColor" fill-opacity="0.5"></path></symbol>
</svg>