<svg width="311" height="60" viewBox="0 0 311 60" fill="none" xmlns="http://www.w3.org/2000/svg">
<path fill-rule="evenodd" clip-rule="evenodd" d="M311.212 0.547492C311.705 0.481985 312.123 0.426285 312.278 0H186.594C186.568 0.189137 186.526 0.374202 186.484 0.561677C186.413 0.872174 186.341 1.18928 186.341 1.54244C186.193 1.61672 185.968 1.63997 185.729 1.66477C185.27 1.71217 184.757 1.7653 184.615 2.19109C184.34 1.77695 183.8 1.53909 183.278 1.30868C182.982 1.17821 182.691 1.05013 182.457 0.893791C181.81 1.32622 180.947 1.32622 180.084 0.893791C179.976 0.893791 179.868 1.00187 179.76 1.10996L179.76 1.11C179.652 1.21811 179.544 1.32622 179.436 1.32622C179.247 1.13662 179.224 0.947025 179.203 0.77565C179.176 0.556157 179.153 0.366557 178.789 0.24514C178.208 0.943363 177.878 0.702105 177.461 0.397809C177.249 0.243113 177.014 0.0721247 176.713 0H176.099C176.061 0.00811006 176.023 0.0177197 175.984 0.0289268L175.984 0H171.918C171.777 0.153786 171.668 0.30757 171.668 0.461357C171.15 0.201899 170.866 0.409467 170.581 0.617034C170.391 0.755413 170.201 0.893791 169.942 0.893791C169.942 1.75866 169.726 2.19109 169.079 2.4073C168.863 2.4073 168.432 2.19109 168.432 1.75866C168.432 2.24432 168.159 2.3209 167.844 2.40955C167.598 2.47876 167.326 2.55534 167.137 2.83974C166.813 2.4073 166.49 2.4073 166.139 2.4073C165.788 2.4073 165.411 2.4073 164.979 1.97487C164.548 1.97487 164.332 2.19109 164.116 2.4073C163.726 2.14707 163.181 2.12175 162.619 2.09572C162.248 2.0785 161.87 2.06097 161.527 1.97487C161.527 1.32623 161.527 0.677574 161.095 0.677574C161.095 0.588014 161.132 0.535551 161.175 0.474087C161.237 0.387163 161.311 0.282238 161.311 0.0289268C161.05 0.0289268 161.026 0.187498 160.999 0.360605C160.982 0.473363 160.964 0.592288 160.879 0.677574C160.448 0.677574 160.232 0.461357 160.232 0.24514C159.95 0.339324 159.791 0.597612 159.63 0.859166L159.63 0.859212V0.859238C159.421 1.19811 159.209 1.54244 158.721 1.54244C158.721 1.45288 158.684 1.40042 158.641 1.33895C158.58 1.25203 158.506 1.1471 158.506 0.893791C158.379 0.893791 158.271 0.912339 158.182 0.927705C157.966 0.964801 157.858 0.983349 157.858 0.677574C157.643 0.893791 157.211 0.893791 156.779 0.677574C156.348 1.11 155.916 1.97487 156.132 2.4073C156.052 2.4878 155.942 2.53832 155.824 2.59235C155.625 2.68345 155.404 2.78451 155.269 3.05595C154.406 2.62352 153.759 2.19109 153.327 1.54244C153.162 1.54244 153.06 1.57398 152.973 1.60093C152.832 1.64452 152.731 1.67607 152.464 1.54244C152.248 1.54244 152.032 1.97487 152.032 2.19109C151.557 2.09589 151.166 2.16836 150.766 2.24239C150.258 2.33649 149.736 2.43312 149.011 2.19109C148.759 2.19109 148.728 2.26528 148.702 2.32674C148.684 2.3702 148.669 2.4073 148.58 2.4073C148.148 2.4073 147.501 2.40731 147.285 1.97487C146.969 1.97487 146.885 2.20662 146.777 2.50047C146.738 2.60801 146.696 2.72387 146.638 2.83974C146.06 2.49217 145.729 2.82747 145.414 3.1471C145.142 3.42399 144.881 3.68911 144.48 3.48838C144.372 3.48838 144.372 3.59649 144.372 3.7046C144.372 3.81271 144.372 3.92082 144.264 3.92082C143.994 3.65055 143.725 3.80257 143.455 3.9546C143.293 4.04582 143.131 4.13703 142.969 4.13703C142.848 4.13703 142.795 4.00066 142.734 3.84279C142.686 3.71954 142.633 3.58318 142.538 3.48838C142.43 3.7046 142.322 3.65055 142.214 3.59649C142.106 3.54244 141.998 3.48838 141.891 3.7046C141.675 3.7046 141.567 3.59649 141.459 3.48838C141.351 3.38027 141.243 3.27217 141.027 3.27217C140.92 3.27217 140.92 3.38027 140.92 3.48838C140.92 3.59649 140.92 3.7046 140.812 3.7046C140.524 3.56046 140.62 3.41631 140.716 3.27217L140.716 3.2721C140.764 3.20005 140.812 3.128 140.812 3.05595C140.712 2.85611 140.474 2.74862 140.204 2.62678C139.89 2.48499 139.533 2.32375 139.301 1.97487C138.985 1.97487 138.901 2.09074 138.793 2.23766C138.754 2.29144 138.712 2.34937 138.654 2.4073C138.56 2.31278 138.424 2.38355 138.283 2.45702C138.102 2.55161 137.912 2.65069 137.791 2.4073C137.597 2.4073 137.446 2.53836 137.281 2.68266C137.078 2.85938 136.852 3.05595 136.496 3.05595C136.618 3.42314 136.325 3.65176 136.009 3.89869C135.767 4.08797 135.511 4.28801 135.417 4.56947C135.18 4.56947 135.203 4.5044 135.237 4.40996C135.264 4.33224 135.299 4.23464 135.201 4.13703C134.885 4.13703 134.916 4.36877 134.956 4.66261C134.97 4.77016 134.986 4.88603 134.986 5.0019C134.338 5.21812 133.907 5.43433 133.691 6.08298C133.259 6.08298 133.044 6.29919 132.828 6.51541C132.551 6.23818 131.92 6.13868 131.331 6.046C131.002 5.99411 130.686 5.94436 130.454 5.86676C130.307 6.08736 130.211 6.30795 130.121 6.51153L130.121 6.51166C129.948 6.90666 129.802 7.23761 129.375 7.38028C128.296 7.16406 127.649 7.16406 127.002 8.02893C126.354 7.59649 125.491 7.81271 125.06 8.02893C124.154 7.78151 123.312 7.78575 122.532 7.78968C121.267 7.79605 120.168 7.80158 119.234 6.73163C118.802 6.94785 118.155 7.16406 117.507 7.16406C117.507 6.99889 117.476 6.8968 117.449 6.80961C117.405 6.66854 117.374 6.56645 117.507 6.29919C117.248 6.29919 117.222 6.53271 117.197 6.76623C117.179 6.9219 117.162 7.07757 117.076 7.16406C116.968 7.16406 116.914 7.16406 116.887 7.13709C116.86 7.11008 116.86 7.05602 116.86 6.94784C116.802 6.97681 116.748 7.00189 116.698 7.02518C116.374 7.1757 116.213 7.25096 116.213 7.81271C115.925 7.81271 115.829 7.62051 115.733 7.42832C115.685 7.33222 115.637 7.23613 115.565 7.16406C115.134 7.59649 114.702 7.16406 114.486 6.94784C114.271 6.94784 114.163 7.05595 114.055 7.16405C113.947 7.27217 113.839 7.38028 113.623 7.38028C113.546 7.22508 113.413 7.12558 113.274 7.02181C113.026 6.83644 112.76 6.63744 112.76 6.08298C111.511 5.61347 110.261 4.69084 109.175 3.88905L109.175 3.88882L109.174 3.88816C108.76 3.58257 108.37 3.29458 108.013 3.05595C108.013 2.98388 107.989 2.91181 107.965 2.83974C107.917 2.69559 107.869 2.55145 108.013 2.4073C107.581 1.75866 106.718 1.97487 106.071 2.4073C106.071 2.2992 106.017 2.19109 105.963 2.08298C105.909 1.97487 105.855 1.86676 105.855 1.75866C105.463 2.0535 105.026 1.99095 104.646 1.93653C104.19 1.87123 103.815 1.81762 103.697 2.4073C103.482 1.75866 103.266 1.32622 102.618 1.11C101.971 1.54244 100.892 1.11 100.029 0.677574C99.8283 0.878714 99.5809 0.705622 99.2651 0.484678C98.9019 0.230616 98.4483 -0.0867194 97.8713 0.0289268L97.8639 0H-76.0957V60H123.238C123.321 59.8226 123.359 59.6123 123.329 59.3501C123.727 59.1536 124.197 59.3593 124.658 59.5607C125.21 59.8021 125.747 60.0373 126.129 59.5662C126.129 59.7357 126.146 59.8787 126.178 60H155.763C155.85 59.9486 155.945 59.929 156.057 59.9983C156.057 59.9989 156.057 59.9994 156.057 60H168.374C168.369 59.9739 168.362 59.9479 168.355 59.9204C168.333 59.8332 168.308 59.7312 168.308 59.5662C169.358 58.918 170.058 58.4859 170.758 57.1895H170.933C171.283 57.1895 171.108 57.6216 171.108 57.6216C171.181 57.6216 171.253 57.5475 171.338 57.4606C171.458 57.3378 171.603 57.1895 171.808 57.1895C172.242 57.1895 172.764 56.9183 173.327 56.6258C174.354 56.0925 175.517 55.4882 176.534 56.3253C177.059 55.8931 177.759 55.461 178.634 55.8931C178.634 55.9826 178.664 56.0721 178.699 56.177C178.749 56.3253 178.809 56.5043 178.809 56.7574C179.334 56.5413 180.034 56.9734 180.209 57.1895C180.384 57.2975 180.428 57.1895 180.472 57.0815C180.515 56.9734 180.559 56.8654 180.734 56.9734C180.734 56.9014 180.715 56.8534 180.695 56.8054C180.656 56.7094 180.617 56.6133 180.734 56.3253C181.123 56.5173 181.65 56.3679 182.177 56.2186C182.837 56.0318 183.496 55.8451 183.884 56.3253C184.935 56.3253 185.46 55.8931 186.16 55.245C186.535 55.5536 186.82 55.4213 187.208 55.2418C187.363 55.17 187.535 55.0906 187.735 55.0289V55.6771C188.111 55.5843 188.648 55.6111 189.18 55.6376C189.887 55.6728 190.586 55.7076 190.885 55.461C191.41 56.5413 192.635 56.3253 193.685 56.1092C193.685 56.5953 193.981 56.4738 194.202 56.3827C194.276 56.3523 194.342 56.3253 194.385 56.3253C194.735 56.7574 195.261 56.7574 195.786 56.7574C196.311 56.7574 196.836 56.7574 197.186 57.1895C197.078 57.056 197.17 57.005 197.298 56.9345C197.376 56.8909 197.469 56.8399 197.536 56.7574C197.623 56.8114 197.722 56.8519 197.82 56.8924C198.115 57.014 198.411 57.1355 198.411 57.6216C198.586 57.6216 198.761 57.6216 198.761 57.1895C198.936 57.6216 199.811 58.0537 199.811 57.1895C200.184 57.3737 200.621 57.4401 201.053 57.5059C201.635 57.5945 202.21 57.6819 202.611 58.0537C203.111 57.8068 203.611 57.8421 204.111 57.8774C204.486 57.9038 204.861 57.9303 205.236 57.8377C205.84 58.7312 206.775 58.4957 207.7 58.263C208.117 58.1581 208.531 58.0537 208.912 58.0537C208.999 58.0537 208.999 57.9997 208.999 57.9187C208.999 57.8377 208.999 57.7297 209.087 57.6216C209.485 57.9493 209.782 58.0285 210.208 58.1419C210.344 58.178 210.493 58.2176 210.662 58.2698C210.972 57.9825 211.351 58.1196 211.708 58.2485C212.155 58.4105 212.567 58.5595 212.762 57.8377C213.112 57.8377 213.287 57.8377 213.287 58.0537C213.462 58.0537 213.462 57.6217 213.462 57.1896V57.1895C213.73 57.1895 213.691 57.4417 213.657 57.6571C213.647 57.7236 213.637 57.7867 213.637 57.8377C213.812 57.8377 213.812 57.6216 213.812 57.4056C213.987 57.4056 213.987 57.6216 213.987 57.8377C214.186 57.8377 214.328 57.6287 214.478 57.4086C214.592 57.241 214.711 57.0668 214.862 56.9734C215.221 56.9734 215.66 57.1242 216.139 57.2887C217.066 57.6064 218.14 57.975 219.063 57.4056L219.588 58.0537C219.675 58.0537 219.675 57.9997 219.675 57.9187C219.675 57.8377 219.675 57.7297 219.763 57.6216C220.181 58.3956 220.599 58.3224 221.128 58.2297C221.486 58.1671 221.894 58.0957 222.388 58.2698C222.388 57.567 222.954 57.3722 223.444 57.2035C223.858 57.061 224.218 56.937 224.138 56.5413C224.138 56.4401 224.253 56.4811 224.394 56.5311C224.553 56.5879 224.745 56.6562 224.838 56.5413C224.98 56.2784 225.151 56.1221 225.316 55.9716C225.557 55.751 225.784 55.5426 225.888 55.0289C226.203 54.9319 226.482 55.0961 226.773 55.2675C227.13 55.4779 227.506 55.6992 227.989 55.461C228.251 56.1092 228.82 56.3253 229.389 56.5413C229.958 56.7574 230.526 56.9734 230.789 57.6216C230.876 57.5136 231.008 57.5136 231.117 57.5136C231.226 57.5136 231.314 57.5136 231.314 57.4056C231.649 59.0588 233.425 59.3284 234.804 59.5378C234.866 59.5473 234.928 59.5568 234.989 59.5662C234.989 59.743 235.008 59.8851 235.042 60H387.096V30.8437C387.065 30.8643 387.034 30.8898 387.003 30.9208C386.895 30.9208 386.895 30.8127 386.895 30.7046C386.895 30.5965 386.895 30.4884 386.787 30.4884C386.386 30.6891 386.125 30.424 385.852 30.1471C385.538 29.8275 385.207 29.4922 384.629 29.8397C384.571 29.7239 384.529 29.608 384.49 29.5004C384.382 29.2066 384.298 28.9749 383.982 28.9749C383.766 29.4073 383.119 29.4073 382.687 29.4073C382.598 29.4073 382.582 29.3702 382.565 29.3267C382.539 29.2653 382.508 29.1911 382.256 29.1911C381.531 29.4331 381.009 29.3365 380.501 29.2424C380.101 29.1684 379.71 29.0959 379.235 29.1911C379.235 28.9749 379.019 28.5424 378.803 28.5424C378.536 28.6761 378.434 28.6445 378.294 28.6009C378.207 28.574 378.105 28.5424 377.94 28.5424C377.508 29.1911 376.861 29.6235 375.998 30.056C375.863 29.7845 375.642 29.6835 375.443 29.5924C375.325 29.5383 375.215 29.4878 375.135 29.4073C375.351 28.9749 374.919 28.11 374.488 27.6776C374.056 27.8938 373.624 27.8938 373.409 27.6776C373.409 27.9833 373.301 27.9648 373.085 27.9277C372.996 27.9123 372.888 27.8938 372.761 27.8938C372.761 28.1471 372.687 28.252 372.626 28.339C372.582 28.4004 372.545 28.4529 372.545 28.5424C372.058 28.5424 371.846 28.1981 371.637 27.8592C371.476 27.5976 371.317 27.3393 371.035 27.2451C371.035 27.4614 370.819 27.6776 370.388 27.6776C370.303 27.5923 370.285 27.4734 370.268 27.3606C370.241 27.1875 370.217 27.0289 369.956 27.0289C369.956 27.2822 370.03 27.3872 370.091 27.4741C370.135 27.5356 370.172 27.588 370.172 27.6776C369.74 27.6776 369.74 28.3262 369.74 28.9749C369.397 29.061 369.019 29.0785 368.647 29.0957C368.086 29.1217 367.541 29.1471 367.151 29.4073C366.935 29.1911 366.719 28.9749 366.288 28.9749C365.856 29.4073 365.479 29.4073 365.128 29.4073C364.777 29.4073 364.454 29.4073 364.13 29.8397C363.941 29.5553 363.669 29.4788 363.423 29.4095C363.108 29.3209 362.835 29.2443 362.835 28.7587C362.835 29.1911 362.404 29.4073 362.188 29.4073C361.541 29.1911 361.325 28.7587 361.325 27.8938C361.066 27.8938 360.876 27.7554 360.686 27.617C360.401 27.4095 360.117 27.2019 359.599 27.4614C359.599 27.2451 359.383 27.0289 359.167 26.8127C358.552 27.0594 357.866 26.8135 357.15 26.5567C356.611 26.3635 356.055 26.1641 355.499 26.1641C355.283 26.3803 355.283 26.8127 355.283 27.0289C354.585 26.8292 354.164 27.1367 353.806 27.3978C353.389 27.7021 353.059 27.9434 352.478 27.2451C352.114 27.3666 352.091 27.5562 352.064 27.7757C352.043 27.947 352.02 28.1366 351.83 28.3262C351.723 28.3262 351.615 28.2181 351.507 28.11C351.399 28.0019 351.291 27.8938 351.183 27.8938C350.32 28.3262 349.457 28.3262 348.81 27.8938C348.576 28.0501 348.285 28.1782 347.989 28.3087C347.467 28.5391 346.927 28.7769 346.652 29.1911C346.51 28.7653 345.997 28.7122 345.538 28.6648C345.298 28.64 345.074 28.6167 344.925 28.5424C344.925 28.1893 344.854 27.8722 344.783 27.5617C344.681 27.1118 344.582 26.6758 344.71 26.1641C344.494 26.2722 344.332 26.2722 344.197 26.2722C344.062 26.2722 343.954 26.2722 343.847 26.3803C343.443 25.5706 343.039 25.7084 342.457 25.9068C342.432 25.9155 342.406 25.9243 342.38 25.9332L342.336 25.9478C342.336 25.7316 342.12 25.5154 341.905 25.5154C341.771 25.918 341.471 25.9041 341.107 25.8874C340.885 25.8771 340.64 25.8658 340.394 25.9478C339.997 25.3503 339.599 25.4867 339.033 25.6809C338.984 25.6975 338.935 25.7146 338.884 25.7316C338.091 25.1359 337.844 25.0873 336.973 24.9158C336.896 24.9006 336.814 24.8844 336.726 24.8668C336.634 24.4987 336.347 24.3264 336.08 24.1667C335.721 23.951 335.399 23.758 335.647 23.137C335.237 23.137 335.086 23.0501 334.976 22.9865C334.913 22.9498 334.863 22.9208 334.784 22.9208C334.699 22.8355 334.681 22.7166 334.664 22.6038C334.638 22.4307 334.614 22.2722 334.352 22.2722C334.568 21.8397 334.784 21.1911 334.352 20.9749C334.352 21.2343 334.119 21.2603 333.886 21.2862C333.731 21.3035 333.575 21.3208 333.489 21.4073C333.273 20.9749 332.842 20.7587 332.41 21.1911C332.41 20.9749 332.194 20.9749 331.979 20.9749C331.794 21.0491 331.615 21.1233 331.441 21.1953C330.604 21.543 329.889 21.8397 329.173 21.8397C328.958 21.4073 328.742 20.9749 328.31 20.9749C328.31 21.1911 328.095 21.1911 328.095 21.1911C327.959 21.0555 327.866 20.9198 327.783 20.7976L327.782 20.7973C327.599 20.5298 327.46 20.3262 327.016 20.3262C327.016 20.5424 327.231 20.7587 327.231 20.7587C327.016 20.7587 326.962 20.6505 326.908 20.5424C326.854 20.4343 326.8 20.3262 326.584 20.3262C325.326 20.6063 324.521 19.9794 323.758 19.3854C323.343 19.0623 322.94 18.7489 322.484 18.5965C322.426 18.6544 322.384 18.7124 322.345 18.7661C322.238 18.9131 322.153 19.0289 321.837 19.0289C321.729 18.8127 321.567 18.7587 321.405 18.7046C321.244 18.6505 321.082 18.5965 320.974 18.3803C320.974 18.5965 320.974 19.0289 320.758 19.0289C320.974 18.8127 320.542 18.8127 320.326 18.8127C320.159 19.0641 320.024 19.1856 319.922 19.2779C319.76 19.4237 319.679 19.4966 319.679 19.8938C319.097 19.4073 318.47 19.096 317.84 18.7825C317.069 18.3993 316.291 18.0128 315.579 17.2992C315.579 17.4074 315.579 17.4614 315.552 17.4884C315.525 17.5154 315.471 17.5154 315.363 17.5154C315.579 17.9478 315.579 17.9478 315.363 18.3803C316.227 19.0289 316.011 20.11 315.363 20.9749C315.076 21.119 314.98 21.071 314.884 21.0229C314.836 20.9989 314.788 20.9749 314.716 20.9749C314.716 21.1911 314.608 21.2992 314.5 21.4073C314.393 21.5154 314.285 21.6235 314.285 21.8397C314.042 21.7183 313.936 21.8014 313.813 21.8977C313.717 21.9728 313.611 22.056 313.421 22.056C313.354 22.0221 313.288 21.9882 313.223 21.955C312.457 21.5637 311.86 21.2588 311.264 22.056C310.773 23.695 309.414 22.9733 308.221 22.3398C307.841 22.1376 307.477 21.9444 307.164 21.8397C307.164 21.8397 307.164 22.056 306.948 22.056C306.855 21.4031 306.601 20.8307 306.36 20.2867C306.042 19.5696 305.746 18.9018 305.869 18.1641C306.301 17.9478 307.38 16.8668 306.301 16.6505C305.869 17.2992 305.222 17.9478 303.927 17.7316C303.064 16.6507 301.985 15.7859 300.907 14.9212L300.906 14.9208C300.906 14.7046 300.906 14.4884 301.122 14.2722C301.122 14.1826 301.085 14.093 301.042 13.9881C300.98 13.8397 300.906 13.6606 300.906 13.4073C299.491 12.6985 300.025 11.8038 300.559 10.9061C300.84 10.4345 301.122 9.96216 301.122 9.51541C301.554 9.51541 301.985 8.86676 302.201 8.43433C303.331 8.43433 303.639 7.94 303.986 7.38288C304.037 7.30182 304.088 7.21943 304.143 7.13703C305.438 7.13703 306.732 7.78568 306.516 9.51541C306.905 9.51541 307.06 9.28189 307.216 9.04837C307.319 8.8927 307.423 8.73703 307.595 8.65055C307.891 7.56611 307.782 6.57157 307.679 5.62595V5.62579C307.556 4.49754 307.44 3.43891 308.027 2.38028C308.148 2.31972 308.273 2.25916 308.4 2.19742C309.184 1.81825 310.06 1.3943 310.616 0.650546C310.819 0.599857 311.021 0.572935 311.212 0.547492ZM310.401 13.8397C310.616 13.6235 310.832 13.4073 310.832 13.1911C311.479 13.1911 311.695 13.1911 312.127 13.4073C311.911 14.056 310.832 14.056 310.401 13.8397ZM308.027 13.4073C308.243 13.1911 308.459 13.4073 308.674 13.6235C308.548 13.6235 308.44 13.6421 308.351 13.6574C308.135 13.6945 308.027 13.7131 308.027 13.4073ZM306.732 16.0019C306.732 15.8761 306.751 15.7136 306.771 15.5305C306.821 15.0844 306.885 14.5158 306.732 14.056C306.84 14.056 306.894 14.0019 306.948 13.9478C307.002 13.8938 307.056 13.8397 307.164 13.8397C307.083 14.1618 307.123 14.5139 307.159 14.8401C307.221 15.3899 307.274 15.8662 306.732 16.0019Z" fill="#E50013"/>
</svg>
