<svg xmlns="http://www.w3.org/2000/svg" width="80" height="29" viewBox="0 0 80 29" fill="none">
                            <path d="M26.4175 19.2492C26.4347 19.6618 26.4434 20.0607 26.4434 20.4342C26.4434 20.8077 26.4406 21.1867 26.4347 21.5829C26.4287 21.9736 26.4143 22.4147 26.3912 22.8953C26.3094 24.9543 25.7869 26.4464 24.838 27.3298C23.8891 28.2073 22.3893 28.6519 20.379 28.6519C18.3687 28.6519 16.9432 28.2194 15.9663 27.3661C14.9867 26.505 14.4518 24.9977 14.3756 22.8855C14.3585 22.4272 14.3465 21.9087 14.3409 21.3446C14.3409 20.7733 14.3497 20.206 14.3669 19.6575C14.39 19.107 14.4223 18.6276 14.463 18.2306L14.4734 18.131H15.445L15.4346 18.2513C15.4003 18.6452 15.3712 19.0898 15.3481 19.5727C15.325 20.0552 15.3134 20.5796 15.3134 21.1312C15.319 21.6806 15.3309 22.2631 15.3481 22.8617C15.4159 24.6695 15.8511 25.9647 16.6408 26.7109C17.4306 27.4513 18.6882 27.8272 20.3794 27.8272C22.0706 27.8272 23.3562 27.4462 24.1344 26.6949C24.919 25.9373 25.3513 24.6445 25.4195 22.8523C25.4367 22.4362 25.4483 22.0455 25.4542 21.6903C25.4598 21.3348 25.463 20.9636 25.463 20.5874C25.4686 20.2099 25.463 19.7743 25.4459 19.291C25.3892 17.7286 25.0518 16.5139 24.4431 15.6805C23.8372 14.8506 22.945 14.279 21.791 13.9813L19.249 13.3183C18.8366 13.2128 18.4808 13.0428 18.192 12.8127C17.9036 12.5724 17.6819 12.227 17.5315 11.7844C17.3839 11.3452 17.3006 10.7599 17.283 10.0442C17.2659 9.51865 17.2599 8.94236 17.2655 8.33246C17.2714 7.72179 17.2798 7.09236 17.2914 6.46215C17.3269 5.24432 17.5873 4.36288 18.0664 3.8409C18.5494 3.31462 19.3248 3.04777 20.3714 3.04777C21.3563 3.04777 22.0862 3.31852 22.5405 3.85223C22.9884 4.37265 23.2425 5.26151 23.2952 6.49341C23.3127 6.97476 23.3155 7.63388 23.3039 8.45397C23.2924 9.26664 23.2748 10.0817 23.2517 10.8775L23.2485 10.985H22.2669L22.2709 10.8701C22.2996 10.077 22.3171 9.25727 22.3227 8.43444C22.3343 7.612 22.3343 6.97867 22.3227 6.55162C22.2832 5.50101 22.1025 4.78016 21.7854 4.41055C21.4739 4.04758 20.9981 3.86356 20.371 3.86356C19.6252 3.86356 19.0895 4.06634 18.778 4.46564C18.4645 4.86963 18.2913 5.56587 18.2634 6.53443C18.2519 7.20293 18.2431 7.8433 18.2375 8.43561C18.2375 9.02636 18.2435 9.55733 18.2546 10.0125C18.2718 10.5845 18.3256 11.042 18.4158 11.3718C18.5071 11.6882 18.6423 11.9281 18.8163 12.0832C18.9926 12.2403 19.2215 12.3544 19.4967 12.4232L22.0212 13.0518C23.4296 13.4023 24.5109 14.0919 25.2349 15.1011C25.9556 16.1056 26.3537 17.5008 26.4179 19.248L26.4175 19.2492ZM27.4398 3.09934H32.9398V28.3628H33.9206V3.09934H39.4035V2.23197H27.4398V3.09934ZM34.4404 28.3628H35.4212V4.38281H39.4031V3.51544H34.4404V28.3628ZM27.4398 4.38281H31.4389V28.3628H32.4197V3.51544H27.4398V4.38281ZM12.0415 11.8766C12.053 13.5293 12.053 15.2421 12.0415 16.9683C12.0355 18.6936 12.0123 20.5526 11.9721 22.4932C11.9429 23.9885 11.6873 25.1778 11.2122 26.0284C10.7328 26.8863 10.0304 27.4978 9.12453 27.8459C8.23067 28.1894 7.125 28.3636 5.83865 28.3636H0V0.949279H5.84742C7.13976 0.949279 8.24502 1.12353 9.13331 1.46697C10.0391 1.81509 10.7388 2.42381 11.2122 3.27594C11.6873 4.12025 11.9429 5.30683 11.9721 6.80246C12.0068 8.5161 12.0299 10.2235 12.0415 11.877V11.8766ZM8.02325 27.261C8.64988 27.102 9.18556 26.8328 9.61554 26.4613C10.0503 26.0901 10.3866 25.5771 10.6159 24.9355C10.8536 24.2866 10.9829 23.4579 11 22.4721C11.0347 20.6804 11.0578 18.9198 11.0694 17.2386C11.081 15.5531 11.081 13.8383 11.0694 12.1415C11.0578 10.438 11.0347 8.64581 11 6.81496C10.9717 5.49164 10.7487 4.45704 10.3379 3.7401C9.93623 3.02432 9.35189 2.52109 8.60082 2.24291C7.84217 1.96004 6.91559 1.81665 5.84742 1.81665H0.972044V27.4958H5.83865C6.65234 27.4958 7.38746 27.4169 8.02325 27.2614V27.261ZM9.01404 12.0551C9.01963 13.7301 9.01963 15.4398 9.01404 17.1374C9.00806 18.8358 8.99649 20.6374 8.97934 22.4917C8.96738 23.7298 8.69575 24.6003 8.17123 25.0785C7.6551 25.5548 6.87012 25.7967 5.83865 25.7967H3.00149V3.51544H5.84702C6.49558 3.51544 7.0564 3.61273 7.5139 3.80495C7.98696 3.99523 8.35392 4.33593 8.60241 4.81688C8.84652 5.28886 8.97296 5.95736 8.97894 6.80363C8.9961 8.60166 9.00766 10.3688 9.01365 12.0555L9.01404 12.0551ZM7.73926 23.9752C7.90559 23.6165 7.99254 23.1172 7.99852 22.4897C8.01567 20.8152 8.02724 19.1316 8.03323 17.4852C8.03881 15.8391 8.03881 14.1239 8.03323 12.3872C8.03323 10.6466 8.02166 8.76849 7.99852 6.80519C7.99294 5.88703 7.81425 5.24705 7.46723 4.90167C7.12101 4.55707 6.57576 4.38242 5.84742 4.38242H3.97393V24.9289H5.83865C6.32248 24.9289 6.72653 24.8555 7.03964 24.7101C7.34797 24.5644 7.5837 24.3167 7.73966 23.9748L7.73926 23.9752ZM9.89435 25.2536C9.53058 25.9252 8.99769 26.4054 8.31044 26.6804C7.64034 26.9453 6.8087 27.0797 5.83865 27.0797H1.50094V2.23236H5.84742C6.8059 2.23236 7.63117 2.36364 8.30047 2.62268C8.98772 2.88601 9.5242 3.36072 9.89395 4.03274C10.2593 4.69694 10.4568 5.63737 10.4799 6.82785C10.5086 8.1711 10.5289 9.50107 10.5405 10.7802C10.5521 12.0579 10.5577 13.3445 10.5577 14.6053C10.5577 15.8661 10.5517 17.1613 10.5405 18.4557C10.5289 19.7407 10.5086 21.0875 10.4799 22.4592C10.4564 23.6439 10.2593 24.5843 9.89395 25.254L9.89435 25.2536ZM9.53377 12.1497C9.52779 10.4618 9.51622 8.66378 9.49907 6.80519C9.4879 5.4049 9.18197 4.42891 8.59045 3.90341C7.99573 3.36971 7.07275 3.09934 5.84702 3.09934H2.47299V26.212H5.83865C7.03645 26.212 7.95425 25.9467 8.56651 25.4235C9.17439 24.9039 9.4883 23.917 9.49947 22.4897C9.51662 20.6593 9.52819 18.8843 9.53417 17.2132C9.53975 15.5387 9.53975 13.8352 9.53417 12.1493L9.53377 12.1497ZM23.771 10.8701L23.7666 10.985H24.7391L24.7431 10.8783C24.7718 10.0981 24.7925 9.27954 24.8037 8.44538C24.8152 7.60301 24.8125 6.93217 24.7949 6.45121C24.7303 4.82236 24.3526 3.63734 23.6713 2.92938C22.9872 2.21829 21.8764 1.85806 20.3706 1.85806C18.8649 1.85806 17.7058 2.20579 16.9703 2.89109C16.24 3.5717 15.8427 4.76101 15.79 6.4266C15.7785 6.79894 15.7697 7.20293 15.7641 7.62802V8.8943C15.7641 9.31314 15.7701 9.71478 15.7817 10.0871C15.8108 11.0522 15.9476 11.8617 16.1881 12.4943C16.437 13.1331 16.7932 13.6379 17.2467 13.9942C17.6966 14.3478 18.2419 14.6096 18.8685 14.7717L21.4448 15.4089C21.9741 15.5398 22.4224 15.7606 22.7786 16.0661C23.1372 16.3634 23.4148 16.7819 23.6043 17.3113C23.8017 17.8419 23.9162 18.528 23.9445 19.3512C23.9617 19.7895 23.9704 20.1881 23.9704 20.5366C23.9704 20.8851 23.9676 21.2414 23.9617 21.597C23.9561 21.9455 23.9413 22.3588 23.9182 22.8269C23.8675 24.1924 23.5652 25.1809 23.0195 25.7642C22.4779 26.3437 21.5892 26.6375 20.379 26.6375C19.1689 26.6375 18.2937 26.3491 17.7469 25.7806C17.2016 25.2028 16.8993 24.212 16.8486 22.8363C16.8315 22.2041 16.8195 21.6071 16.8139 21.0633C16.8139 20.5178 16.8227 20.0048 16.8399 19.5391C16.8626 19.0726 16.8889 18.6389 16.9176 18.2502L16.9264 18.1314H15.954L15.946 18.2338C15.9173 18.6127 15.8937 19.0687 15.8762 19.5895C15.859 20.1099 15.8503 20.66 15.8503 21.2246C15.8503 21.7892 15.859 22.3252 15.8762 22.8347C15.9404 24.5159 16.3373 25.7189 17.0548 26.4105C17.7732 27.1024 18.8916 27.4537 20.3786 27.4537C21.8656 27.4537 23.0766 27.0844 23.7666 26.3562C24.4531 25.6314 24.834 24.4468 24.8986 22.8347C24.9158 22.3342 24.9277 21.8904 24.9333 21.5173C24.9449 21.143 24.9477 20.7812 24.9421 20.4432C24.9421 20.0974 24.9333 19.7157 24.9162 19.3094C24.8695 17.8954 24.5767 16.792 24.047 16.0309C23.5185 15.2574 22.7196 14.7358 21.6734 14.481L19.1142 13.8438C18.6124 13.718 18.1833 13.514 17.841 13.2378C17.5052 12.9573 17.2419 12.5587 17.0592 12.0539C16.8789 11.5402 16.7756 10.8709 16.7529 10.0652C16.7413 9.51904 16.7358 8.93103 16.7358 8.31801C16.7413 7.70225 16.7501 7.07087 16.7617 6.44262C16.8068 5.0181 17.1247 4.02336 17.7066 3.48614C18.2893 2.94813 19.1856 2.67503 20.3702 2.67503C21.5549 2.67503 22.416 2.96572 22.941 3.53927C23.4695 4.11166 23.763 5.09429 23.8141 6.46098C23.8368 6.98843 23.8428 7.68116 23.8312 8.51961C23.8197 9.3526 23.7993 10.1438 23.7706 10.8705L23.771 10.8701ZM16.2212 15.1065C16.8387 15.6078 17.6041 15.9727 18.4952 16.1907L21.0898 16.837C21.3762 16.9057 21.6167 17.0257 21.805 17.1945C21.996 17.3609 22.1456 17.618 22.2493 17.961C22.3614 18.3064 22.4268 18.7909 22.4436 19.4008C22.4551 19.7958 22.4607 20.158 22.4607 20.4788C22.4663 20.7933 22.4663 21.1293 22.4607 21.4778C22.4547 21.8232 22.4432 22.2455 22.426 22.7335C22.3921 23.7197 22.213 24.4304 21.8935 24.8461C21.588 25.2454 21.0782 25.4478 20.379 25.4478C19.6423 25.4478 19.1254 25.2329 18.8426 24.8097C18.549 24.3702 18.3831 23.6802 18.3492 22.7597C18.332 22.1791 18.3201 21.6341 18.3145 21.1398C18.3145 20.644 18.3205 20.1588 18.3316 19.6993C18.3488 19.2312 18.3723 18.7428 18.401 18.2486L18.4078 18.1314H17.4346L17.429 18.2365C17.4059 18.6698 17.3855 19.1394 17.3684 19.6321C17.3512 20.1185 17.3424 20.6346 17.3424 21.1668C17.348 21.6903 17.3568 22.2338 17.3684 22.7843C17.4154 24.0338 17.6755 24.9344 18.1426 25.4622C18.6196 25.9948 19.3723 26.2647 20.379 26.2647C21.3858 26.2647 22.1664 25.9881 22.6259 25.4431C23.0854 24.9051 23.3454 24.0049 23.3981 22.7671C23.4152 22.2772 23.4272 21.8533 23.4328 21.5075C23.4387 21.1613 23.4415 20.8206 23.4415 20.4944C23.4415 20.1681 23.4328 19.7872 23.4156 19.3695C23.3921 18.6139 23.2968 17.9966 23.132 17.536C22.9701 17.0655 22.7335 16.6998 22.4308 16.4506C22.1293 16.1966 21.7571 16.0169 21.3271 15.9176L18.7413 15.2632C17.9982 15.0811 17.3656 14.7772 16.861 14.3599C16.3576 13.9438 15.9691 13.3843 15.7055 12.6978C15.439 11.9985 15.2871 11.1272 15.2528 10.1086C15.2412 9.53506 15.2356 8.94978 15.2356 8.36997C15.2412 7.78547 15.2532 7.12831 15.2703 6.418C15.3269 4.63755 15.7533 3.35681 16.5375 2.61056C17.3217 1.86431 18.6112 1.48611 20.371 1.48611C22.1309 1.48611 23.2812 1.86431 24.0478 2.60978C24.8208 3.35603 25.2476 4.64341 25.3154 6.43519C25.3326 6.91185 25.3354 7.57645 25.3242 8.41061C25.3182 9.24398 25.3011 10.0723 25.2724 10.8717L25.2684 10.9861H26.2404L26.2444 10.8795C26.2731 10.1282 26.2907 9.30376 26.2966 8.42936C26.3082 7.54753 26.3054 6.86223 26.2879 6.393C26.2121 4.31561 25.692 2.82584 24.7427 1.96512C23.7933 1.09892 22.3227 0.660156 20.3706 0.660156C18.2618 0.660156 16.7202 1.11689 15.7884 2.01786C14.8635 2.91805 14.3621 4.38711 14.2979 6.38479C14.2807 6.99429 14.2687 7.62411 14.2632 8.25628C14.2572 8.88297 14.2632 9.51631 14.2807 10.1379C14.3098 11.2952 14.4873 12.2942 14.8088 13.1069C15.1323 13.925 15.6074 14.5974 16.2216 15.1065H16.2212ZM64.3831 10.8795L64.3795 10.9936H65.3507L65.3547 10.8869C65.3659 10.5978 65.3747 10.2481 65.3806 9.84762C65.3866 9.4366 65.3894 9.01855 65.3894 8.60674C65.3954 8.15977 65.3982 7.75891 65.3982 7.38148C65.3982 7.00406 65.3922 6.68017 65.3806 6.42582C65.3216 4.80126 64.9343 3.62445 64.2295 2.92782C63.5279 2.22337 62.3943 1.86627 60.8607 1.86627C59.327 1.86627 58.1583 2.22337 57.4571 2.92782C56.7627 3.62562 56.3985 4.80321 56.3754 6.42816C56.3518 8.28753 56.3347 10.1489 56.3231 11.9606C56.3116 13.7766 56.3116 15.6125 56.3231 17.4176C56.3343 19.2183 56.3518 21.0539 56.3754 22.8742C56.4045 24.5038 56.771 25.69 57.4659 26.3995C58.1671 27.104 59.3238 27.4611 60.9041 27.4611C62.4845 27.4611 63.5989 27.1075 64.3228 26.4101C65.052 25.7131 65.4548 24.53 65.5194 22.8933C65.5366 22.4417 65.5454 21.9455 65.5454 21.4204C65.551 20.8898 65.551 20.3455 65.5454 19.8036C65.5394 19.2453 65.5274 18.721 65.5107 18.2459L65.5067 18.1388H64.5251L64.5299 18.2541C64.553 18.8202 64.5646 19.3793 64.5646 19.9165C64.5701 20.4514 64.5701 20.971 64.5646 21.4618C64.5646 21.9509 64.5558 22.4124 64.5386 22.8343C64.488 24.194 64.1796 25.1821 63.6232 25.7713C63.0756 26.3511 62.1578 26.6449 60.8954 26.6449C59.6329 26.6449 58.7486 26.362 58.2014 25.8041C57.6577 25.2442 57.3733 24.269 57.3562 22.9047C57.3271 21.0191 57.3067 19.1437 57.2956 17.3316C57.2896 15.4992 57.2896 13.6555 57.2956 11.8516C57.3067 10.0606 57.3271 8.23713 57.3562 6.43089C57.3729 5.07749 57.6522 4.10463 58.185 3.53888C58.7211 2.97041 59.621 2.68206 60.8607 2.68206C62.1003 2.68206 62.9902 2.97861 63.5267 3.5635C64.0664 4.14643 64.3599 5.1232 64.3998 6.46723C64.4114 6.78331 64.417 7.1791 64.417 7.6456C64.4226 8.11836 64.4226 8.64073 64.417 9.19827C64.411 9.7687 64.399 10.3341 64.3823 10.8787L64.3831 10.8795ZM75.0373 28.3628H76.0181V4.38281H80V3.51544H75.0373V28.3628ZM68.0363 4.38281H72.0354V28.3628H73.0162V3.51544H68.0359V4.38281H68.0363ZM68.0363 3.09934H73.5363V28.3628H74.5171V3.09934H80V2.23197H68.0363V3.09934ZM62.8821 10.8795L62.8785 10.9936H63.8498L63.8542 10.8873C63.8773 10.3188 63.8889 9.75425 63.8889 9.20999C63.8949 8.64112 63.8976 8.14024 63.8976 7.6792C63.8976 7.21817 63.8917 6.80324 63.8801 6.45981C63.833 5.25526 63.5726 4.38007 63.1067 3.85926C62.6408 3.3322 61.8853 3.06457 60.8611 3.06457C59.8368 3.06457 59.049 3.32907 58.5899 3.85028C58.1344 4.36093 57.8943 5.2283 57.8767 6.42855C57.8536 8.26487 57.836 10.1293 57.8245 11.9696C57.8129 13.8082 57.8129 15.6613 57.8245 17.4773C57.8356 19.2953 57.8532 21.1195 57.8767 22.8996C57.8943 24.1112 58.1376 24.9844 58.5995 25.4958C59.0709 26.0108 59.8435 26.2718 60.8958 26.2718C61.948 26.2718 62.7413 26.0018 63.2184 25.4696C63.6966 24.9422 63.9659 24.0498 64.0189 22.8167C64.042 22.1721 64.0504 21.4274 64.0448 20.6034C64.0448 19.777 64.0333 18.9839 64.0101 18.2463L64.0069 18.1388H63.0253L63.0297 18.2537C63.0584 19.0327 63.0732 19.8548 63.0732 20.6972C63.0732 21.5395 63.0616 22.2537 63.0385 22.8085C62.999 23.7869 62.8063 24.4819 62.4661 24.8746C62.137 25.2598 61.6089 25.4552 60.8958 25.4552C60.1826 25.4552 59.6497 25.2661 59.345 24.8937C59.0326 24.5069 58.8683 23.8322 58.8575 22.8871C58.8224 20.9808 58.7993 19.1144 58.7881 17.3398C58.7822 15.5414 58.7822 13.7203 58.7881 11.9277C58.7993 10.152 58.8224 8.30863 58.8575 6.4473C58.8683 5.49632 59.0271 4.82118 59.3278 4.44103C59.6274 4.06868 60.1431 3.87997 60.8611 3.87997C61.579 3.87997 62.1051 4.08705 62.3999 4.49651C62.703 4.91261 62.8714 5.59244 62.8993 6.51841C62.9108 6.8005 62.9164 7.17636 62.9164 7.63701C62.922 8.09843 62.922 8.61807 62.9164 9.18108C62.91 9.75972 62.8985 10.3309 62.8817 10.8783L62.8821 10.8795ZM68.0363 0.949279V1.81665H80V0.949279H68.0363ZM46.7822 17.6211C46.625 17.6211 46.4603 17.6239 46.2963 17.6297H43.9713V28.3628H44.9434V18.4885H46.1404L48.8559 28.3628H49.8714L46.8687 17.6211H46.7826H46.7822ZM49.7581 6.66454C49.8044 7.79407 49.8275 8.90759 49.8275 9.97382C49.8275 11.0401 49.804 12.1368 49.7581 13.2331C49.7163 14.29 49.4195 15.0139 48.877 15.3843C48.3445 15.7418 47.5847 15.9227 46.6174 15.9227H43.9713V3.51544H46.6262C47.5855 3.51544 48.3421 3.73267 48.8754 4.16089C49.4191 4.58676 49.7166 5.42951 49.7581 6.66454ZM48.7861 6.69736C48.7582 5.79717 48.5687 5.18024 48.2233 4.8626C47.8763 4.54417 47.339 4.38281 46.6262 4.38281H44.9434V15.0554H46.6174C47.325 15.0554 47.8663 14.9307 48.2269 14.6842C48.5751 14.4412 48.7638 13.9442 48.7857 13.2081C48.82 11.9973 48.8375 10.8607 48.8375 9.82926C48.8375 8.7978 48.82 7.73898 48.7857 6.69736H48.7861ZM27.4398 1.81626H39.4035V0.949279H27.4398V1.81665V1.81626ZM67.0032 18.2463L66.9993 18.1396H66.0264L66.0312 18.2549C66.0655 19.0621 66.0803 19.8778 66.0743 20.6804C66.0743 21.4762 66.0627 22.2154 66.0396 22.8773C65.977 24.6632 65.5422 25.9529 64.7468 26.7101C63.9511 27.4619 62.658 27.8432 60.9041 27.8432C59.1503 27.8432 57.832 27.4595 57.0546 26.7031C56.2816 25.9404 55.878 24.6566 55.8556 22.8875C55.8265 21.0836 55.8062 19.257 55.795 17.459C55.789 15.6438 55.789 13.7942 55.795 11.9621C55.8062 10.1418 55.8265 8.27816 55.8556 6.4223C55.878 4.65904 56.2757 3.38377 57.0375 2.63244C57.7981 1.87643 59.0845 1.49275 60.8607 1.49275C62.6368 1.49275 63.855 1.87096 64.6336 2.61721C65.4173 3.36346 65.8437 4.64732 65.9008 6.43324C65.9123 6.77901 65.9179 7.22364 65.9179 7.75656C65.9235 8.28636 65.9207 8.84273 65.9091 9.41121C65.9032 9.97382 65.8944 10.4677 65.8832 10.8795L65.88 10.9932H66.8513L66.8549 10.8861C66.866 10.5654 66.8748 10.1985 66.8808 9.79605C66.8868 9.37917 66.8896 8.9615 66.8896 8.55517C66.8955 8.1207 66.8983 7.73117 66.8983 7.3639C66.8983 6.99664 66.8924 6.67509 66.8808 6.40862C66.8166 4.3539 66.3024 2.86999 65.3535 1.99794C64.4106 1.1208 62.8985 0.675785 60.8599 0.675785C58.8212 0.675785 57.2473 1.12666 56.3219 2.01591C55.3961 2.8993 54.9087 4.37773 54.8736 6.41058C54.8501 8.16251 54.8325 9.95233 54.8214 11.7312C54.8154 13.5132 54.8154 15.3519 54.8214 17.196C54.827 19.0382 54.8445 20.957 54.8736 22.8996C54.9087 24.9316 55.3958 26.4155 56.3215 27.3107C57.2525 28.2058 58.7941 28.6594 60.9029 28.6594C63.0118 28.6594 64.5175 28.2089 65.466 27.3204C66.4205 26.4316 66.943 24.9453 67.0192 22.9015C67.0423 22.2174 67.0507 21.4469 67.0451 20.612C67.0451 19.7778 67.0304 18.982 67.0016 18.2455L67.0032 18.2463ZM52.0417 16.3177C52.4712 15.5969 52.713 14.5931 52.7596 13.3347C52.8059 12.2204 52.829 11.1241 52.829 10.0758C52.829 9.02753 52.8055 7.84096 52.7596 6.56217C52.707 5.14 52.4393 4.00773 51.9639 3.19741C51.4844 2.37419 50.788 1.78578 49.8937 1.44938C49.0114 1.11728 47.9118 0.949279 46.6262 0.949279H40.9694V28.3632H41.9415V1.81626H46.6258C47.7111 1.81626 48.6405 1.95965 49.388 2.24252C50.1283 2.51523 50.707 2.99932 51.1083 3.6811C51.5132 4.36992 51.7417 5.3502 51.7872 6.59538C51.833 7.82611 51.8534 8.99393 51.8478 10.0668C51.8478 11.1381 51.8275 12.2259 51.7872 13.2999C51.7361 14.5088 51.4944 15.4445 51.0684 16.0817C50.646 16.7073 49.9584 17.1523 49.0246 17.4043L48.9157 17.4336L51.9962 28.3628H53.0197L50.1175 17.9474C50.9819 17.5617 51.6284 17.0136 52.0413 16.3177H52.0417ZM48.2257 17.0886L51.4422 28.3628H50.4266L47.2453 17.1882C47.1623 17.1953 47.0757 17.2011 46.9872 17.205H46.982H43.4428V28.3624H42.4704V2.23236H46.6262C47.5783 2.23236 48.3976 2.36051 49.0617 2.61369C49.7366 2.8653 50.2671 3.31931 50.6372 3.9628C51.0082 4.59184 51.2176 5.48382 51.2591 6.61335C51.3053 7.79446 51.3285 8.94548 51.3285 10.0332C51.3341 11.1256 51.3105 12.2196 51.2591 13.2847C51.212 14.4525 50.9408 15.3464 50.4534 15.9407C49.9823 16.5143 49.2332 16.9003 48.2261 17.089L48.2257 17.0886ZM50.3473 10.0418C50.3528 8.98026 50.3325 7.83822 50.2866 6.64696C50.236 5.24315 49.8977 4.29373 49.2807 3.8241C48.6557 3.34314 47.7626 3.09973 46.6262 3.09973H43.4424V16.3384H46.6174C47.7682 16.3384 48.666 16.1251 49.2855 15.7039C49.8997 15.2902 50.2364 14.4646 50.2866 13.2495C50.3269 12.1766 50.3473 11.0971 50.3473 10.0418Z" fill="currentColor"></path>
                        </svg>