<?xml version="1.0" encoding="utf-8"?><svg xmlns="http://www.w3.org/2000/svg" xmlns:xlink="http://www.w3.org/1999/xlink"><symbol viewBox="0 0 15 14" id="clock" xmlns="http://www.w3.org/2000/svg">
    <g clip-path="url(#aclip0_2_376)">
        <path d="M7.49999 12.8334C4.27824 12.8334 1.66666 10.2218 1.66666 7.00008C1.66666 3.77833 4.27824 1.16675 7.49999 1.16675C10.7217 1.16675 13.3333 3.77833 13.3333 7.00008C13.3333 10.2218 10.7217 12.8334 7.49999 12.8334ZM7.49999 11.6667C8.73767 11.6667 9.92465 11.1751 10.7998 10.2999C11.675 9.42474 12.1667 8.23776 12.1667 7.00008C12.1667 5.7624 11.675 4.57542 10.7998 3.70025C9.92465 2.82508 8.73767 2.33341 7.49999 2.33341C6.26231 2.33341 5.07533 2.82508 4.20016 3.70025C3.32499 4.57542 2.83332 5.7624 2.83332 7.00008C2.83332 8.23776 3.32499 9.42474 4.20016 10.2999C5.07533 11.1751 6.26231 11.6667 7.49999 11.6667ZM8.08332 7.00008H10.4167V8.16675H6.91666V4.08341H8.08332V7.00008Z"/>
    </g>
    <defs>
        <clipPath id="aclip0_2_376">
            <rect width="14" height="14" transform="translate(0.5)"/>
        </clipPath>
    </defs>
</symbol><symbol viewBox="0 0 14 14" id="key" xmlns="http://www.w3.org/2000/svg">
    <path fill-rule="evenodd" clip-rule="evenodd" d="M11.8375 0.754395L12.6624 1.57935L11.9082 2.33354L13.6582 4.08354L10.7916 6.95017L9.0416 5.20016L7.43951 6.80225C7.61886 7.04482 7.76904 7.30848 7.88643 7.5879C8.08011 8.04893 8.18069 8.54372 8.18236 9.04379C8.18404 9.54385 8.08678 10.0393 7.89619 10.5016C7.7056 10.964 7.42543 11.384 7.07183 11.7376C6.71823 12.0912 6.29818 12.3714 5.83586 12.562C5.37354 12.7526 4.87808 12.8498 4.37802 12.8481C3.87795 12.8465 3.38316 12.7459 2.92213 12.5522C2.46109 12.3585 2.04293 12.0755 1.6917 11.7196L1.68733 11.7151C0.996645 11 0.61449 10.0422 0.623129 9.04806C0.631768 8.0539 1.03053 7.1029 1.73354 6.39989C2.43654 5.69689 3.38754 5.29812 4.3817 5.28948C5.18252 5.28252 5.95973 5.52915 6.60551 5.98634L11.8375 0.754395ZM11.0833 3.1585L9.86656 4.37521L10.7916 5.30025L12.0083 4.08354L11.0833 3.1585ZM6.26597 7.21963L6.23827 7.19287C5.74319 6.71471 5.08011 6.45012 4.39184 6.45611C3.70358 6.46209 3.04519 6.73815 2.5585 7.22485C2.0718 7.71155 1.79573 8.36993 1.78975 9.0582C1.78378 9.74543 2.04756 10.4076 2.52437 10.9024C2.76707 11.1478 3.05578 11.3429 3.374 11.4766C3.69318 11.6107 4.03573 11.6803 4.38193 11.6815C4.72812 11.6826 5.07113 11.6153 5.3912 11.4834C5.71127 11.3514 6.00207 11.1574 6.24687 10.9126C6.49167 10.6678 6.68563 10.377 6.81758 10.057C6.94953 9.7369 7.01686 9.3939 7.0157 9.0477C7.01454 8.7015 6.94491 8.35895 6.81082 8.03977C6.68251 7.73435 6.4976 7.4561 6.26597 7.21963Z"/>
</symbol><symbol viewBox="0 0 24 24" id="location" xmlns="http://www.w3.org/2000/svg">
    <path d="M12 23.7279L5.636 17.3639C4.37734 16.1052 3.52019 14.5016 3.17293 12.7558C2.82567 11.0099 3.00391 9.20035 3.6851 7.55582C4.36629 5.91129 5.51984 4.50569 6.99988 3.51677C8.47992 2.52784 10.22 2 12 2C13.78 2 15.5201 2.52784 17.0001 3.51677C18.4802 4.50569 19.6337 5.91129 20.3149 7.55582C20.9961 9.20035 21.1743 11.0099 20.8271 12.7558C20.4798 14.5016 19.6227 16.1052 18.364 17.3639L12 23.7279ZM16.95 15.9499C17.9289 14.9709 18.5955 13.7236 18.8656 12.3658C19.1356 11.0079 18.9969 9.60052 18.4671 8.32148C17.9373 7.04244 17.04 5.94923 15.8889 5.18009C14.7378 4.41095 13.3844 4.00043 12 4.00043C10.6156 4.00043 9.26222 4.41095 8.11109 5.18009C6.95996 5.94923 6.06275 7.04244 5.53292 8.32148C5.00308 9.60052 4.86442 11.0079 5.13445 12.3658C5.40449 13.7236 6.07111 14.9709 7.05 15.9499L12 20.8999L16.95 15.9499ZM12 12.9999C11.4696 12.9999 10.9609 12.7892 10.5858 12.4141C10.2107 12.0391 10 11.5304 10 10.9999C10 10.4695 10.2107 9.96078 10.5858 9.58571C10.9609 9.21064 11.4696 8.99992 12 8.99992C12.5304 8.99992 13.0391 9.21064 13.4142 9.58571C13.7893 9.96078 14 10.4695 14 10.9999C14 11.5304 13.7893 12.0391 13.4142 12.4141C13.0391 12.7892 12.5304 12.9999 12 12.9999Z"/>
</symbol></svg>