<?xml version="1.0" encoding="utf-8"?><svg viewBox="0 0 24 25" xmlns="http://www.w3.org/2000/svg" xmlns:xlink="http://www.w3.org/1999/xlink"><style>:root>svg{display:none}:root>svg:target{display:block}</style><svg fill="none" viewBox="0 0 15 14" id="clock" xmlns="http://www.w3.org/2000/svg">
  <g clip-path="url(#aa)">
    <path d="M7.5 12.833a5.833 5.833 0 1 1 0-11.666 5.833 5.833 0 0 1 0 11.666Zm0-1.166a4.666 4.666 0 1 0 0-9.333 4.666 4.666 0 0 0 0 9.333ZM8.083 7h2.334v1.167h-3.5V4.083h1.166V7Z" fill="#F7F5F9"/>
  </g>
  <defs>
    <clipPath id="aa">
      <path fill="#fff" transform="translate(.5)" d="M0 0h14v14H0z"/>
    </clipPath>
  </defs>
</svg><svg fill="none" viewBox="0 0 24 25" id="facebook" xmlns="http://www.w3.org/2000/svg">
  <path d="M14 14.207h2.5l1-4H14v-2c0-1.03 0-2 2-2h1.5v-3.36c-.326-.043-1.557-.14-2.857-.14-2.715 0-4.643 1.657-4.643 4.7v2.8H7v4h3v8.5h4v-8.5Z" fill="#F7F5F9"/>
</svg><svg fill="none" viewBox="0 0 24 25" id="instagram" xmlns="http://www.w3.org/2000/svg">
  <path d="M12 2.707c2.717 0 3.056.01 4.122.06 1.065.05 1.79.217 2.428.465.66.254 1.216.598 1.772 1.153.509.5.902 1.105 1.153 1.772.247.637.415 1.363.465 2.428.047 1.066.06 1.405.06 4.122 0 2.717-.01 3.056-.06 4.122-.05 1.065-.218 1.79-.465 2.428a4.883 4.883 0 0 1-1.153 1.772c-.5.508-1.105.902-1.772 1.153-.637.247-1.363.415-2.428.465-1.066.047-1.405.06-4.122.06-2.717 0-3.056-.01-4.122-.06-1.065-.05-1.79-.218-2.428-.465a4.889 4.889 0 0 1-1.772-1.153 4.904 4.904 0 0 1-1.153-1.772c-.248-.637-.415-1.363-.465-2.428-.047-1.066-.06-1.405-.06-4.122 0-2.717.01-3.056.06-4.122.05-1.066.217-1.79.465-2.428a4.88 4.88 0 0 1 1.153-1.772A4.897 4.897 0 0 1 5.45 3.232c.638-.248 1.362-.415 2.428-.465 1.066-.047 1.405-.06 4.122-.06Zm0 5a5 5 0 1 0 0 10 5 5 0 0 0 0-10Zm6.5-.25a1.25 1.25 0 1 0-2.5 0 1.25 1.25 0 0 0 2.5 0ZM12 9.707a3 3 0 1 1 0 6 3 3 0 0 1 0-6Z" fill="#F7F5F9"/>
</svg><svg fill="none" viewBox="0 0 14 14" id="key" xmlns="http://www.w3.org/2000/svg">
  <path fill-rule="evenodd" clip-rule="evenodd" d="m11.838.754.824.825-.754.755 1.75 1.75-2.866 2.866-1.75-1.75L7.44 6.802a3.792 3.792 0 0 1-5.748 4.918l-.005-.005a3.792 3.792 0 0 1 4.919-5.729L11.838.754Zm-.755 2.405L9.867 4.375l.925.925 1.216-1.216-.925-.925Zm-4.817 4.06-.028-.026a2.625 2.625 0 0 0-3.714 3.71A2.625 2.625 0 0 0 6.266 7.22Z" fill="#F7F5F9"/>
</svg><svg fill="none" viewBox="0 0 24 24" id="location" xmlns="http://www.w3.org/2000/svg">
  <path d="m12 23.728-6.364-6.364a9 9 0 1 1 12.728 0L12 23.728Zm4.95-7.778a7 7 0 1 0-9.9 0L12 20.9l4.95-4.95ZM12 13a2 2 0 1 1 0-4 2 2 0 0 1 0 4Z" fill="#F7F5F9"/>
</svg><svg fill="none" viewBox="0 0 24 25" id="pinterest" xmlns="http://www.w3.org/2000/svg">
  <path d="M13.37 2.801a10.003 10.003 0 0 0-5.368 19.076 7.757 7.757 0 0 1 .163-2.293c.185-.839 1.296-5.463 1.296-5.463a3.739 3.739 0 0 1-.324-1.577c0-1.485.857-2.593 1.923-2.593a1.334 1.334 0 0 1 1.342 1.508c0 .9-.578 2.262-.88 3.54a1.544 1.544 0 0 0 1.575 1.923c1.898 0 3.17-2.43 3.17-5.3 0-2.2-1.457-3.849-4.143-3.849a4.746 4.746 0 0 0-4.93 4.794 2.96 2.96 0 0 0 .648 1.97.48.48 0 0 1 .162.554c-.046.184-.162.623-.208.784a.354.354 0 0 1-.51.254c-1.384-.554-2.036-2.077-2.036-3.816 0-2.847 2.384-6.255 7.154-6.255 3.796 0 6.32 2.777 6.32 5.747 0 3.91-2.177 6.848-5.394 6.848a2.86 2.86 0 0 1-2.454-1.246s-.578 2.316-.692 2.754a8.027 8.027 0 0 1-1.019 2.131c.923.28 1.882.42 2.846.416a9.987 9.987 0 0 0 9.996-10.003 10.002 10.002 0 0 0-8.635-9.903h-.002Z" fill="#F7F5F9"/>
</svg><svg fill="none" viewBox="0 0 24 25" id="youtube" xmlns="http://www.w3.org/2000/svg">
  <path d="M21.588 7.898a2.505 2.505 0 0 0-1.763-1.763C18.26 5.707 12 5.707 12 5.707s-6.26 0-7.825.412c-.84.23-1.533.923-1.763 1.78C2 9.462 2 12.708 2 12.708s0 3.261.412 4.81c.23.857.906 1.532 1.763 1.763 1.581.428 7.825.428 7.825.428s6.26 0 7.825-.412a2.506 2.506 0 0 0 1.763-1.762c.412-1.566.412-4.81.412-4.81s.016-3.263-.412-4.828Zm-11.581 7.809V9.71l5.205 2.999-5.205 2.998Z" fill="#F7F5F9"/>
</svg></svg>