<?xml version="1.0" encoding="utf-8"?><svg viewBox="0 0 24 24" xmlns="http://www.w3.org/2000/svg" xmlns:xlink="http://www.w3.org/1999/xlink"><style>:root>svg{display:none}:root>svg:target{display:block}</style><svg fill="none" viewBox="0 0 15 14" id="clock" xmlns="http://www.w3.org/2000/svg">
  <g clip-path="url(#aa)">
    <path d="M7.5 12.833a5.833 5.833 0 1 1 0-11.666 5.833 5.833 0 0 1 0 11.666Zm0-1.166a4.666 4.666 0 1 0 0-9.333 4.666 4.666 0 0 0 0 9.333ZM8.083 7h2.334v1.167h-3.5V4.083h1.166V7Z" fill="#F7F5F9"/>
  </g>
  <defs>
    <clipPath id="aa">
      <path fill="#fff" transform="translate(.5)" d="M0 0h14v14H0z"/>
    </clipPath>
  </defs>
</svg><svg fill="none" viewBox="0 0 14 14" id="key" xmlns="http://www.w3.org/2000/svg">
  <path fill-rule="evenodd" clip-rule="evenodd" d="m11.838.754.824.825-.754.755 1.75 1.75-2.866 2.866-1.75-1.75L7.44 6.802a3.792 3.792 0 0 1-5.748 4.918l-.005-.005a3.792 3.792 0 0 1 4.919-5.729L11.838.754Zm-.755 2.405L9.867 4.375l.925.925 1.216-1.216-.925-.925Zm-4.817 4.06-.028-.026a2.625 2.625 0 0 0-3.714 3.71A2.625 2.625 0 0 0 6.266 7.22Z" fill="#F7F5F9"/>
</svg><svg fill="none" viewBox="0 0 24 24" id="location" xmlns="http://www.w3.org/2000/svg">
  <path d="m12 23.728-6.364-6.364a9 9 0 1 1 12.728 0L12 23.728Zm4.95-7.778a7 7 0 1 0-9.9 0L12 20.9l4.95-4.95ZM12 13a2 2 0 1 1 0-4 2 2 0 0 1 0 4Z" fill="#F7F5F9"/>
</svg></svg>