<svg width="22" height="17" viewBox="0 0 22 17" fill="none" xmlns="http://www.w3.org/2000/svg">
<path fill-rule="evenodd" clip-rule="evenodd" d="M20.5603 2.5312C20.465 2.50361 20.3698 2.47602 20.2745 2.45762L18.0364 2.05295C17.0268 1.86901 16.0268 1.5471 15.103 1.10564L13.2553 0.213517C13.16 0.167531 13.0743 0.130742 12.9791 0.103151C12.2552 -0.126778 11.4933 0.0387706 10.9504 0.489431C11.2457 0.636586 11.4838 0.875712 11.6362 1.17002C11.9219 0.958487 12.3029 0.884909 12.6648 1.00447C12.6751 1.00846 12.6859 1.01244 12.6969 1.01652C12.7367 1.03126 12.7799 1.04725 12.8172 1.06885L14.6648 1.96098C15.6744 2.44843 16.7601 2.79792 17.8554 2.99106L20.0936 3.39573L20.1141 3.39962C20.157 3.40769 20.205 3.4167 20.246 3.43252C20.8365 3.61647 21.1508 4.23268 20.9507 4.8029L19.2459 9.75097C18.4269 12.1422 16.5982 14.1104 14.2267 15.1497L12.3695 15.9683C12.16 16.0602 11.9314 16.0694 11.7219 16.005C11.5028 15.9315 11.3219 15.7935 11.2171 15.5912L11.1409 15.4532L10.9695 15.7199C10.8362 15.9315 10.6457 16.0878 10.4361 16.1982C10.6647 16.5293 11.0076 16.7776 11.4076 16.9064C11.8552 17.0535 12.3505 17.0259 12.7791 16.8328L14.6363 16.0142C17.2554 14.8646 19.284 12.6849 20.1888 10.0453L21.8936 5.09721C22.2555 4.03953 21.6651 2.88069 20.5603 2.5312ZM6.64612 1.4917L8.7319 0.627167C9.62716 0.250084 10.6462 0.737533 10.9129 1.64805L12.3415 6.6789C13.0654 9.24491 12.6558 11.9857 11.2082 14.239L10.1415 15.9036C9.7605 16.5107 8.95096 16.713 8.30332 16.3819L6.38897 15.407C3.97938 14.1654 2.17932 12.0224 1.45549 9.48403L0.0554515 4.53596C-0.201699 3.61624 0.464988 2.68733 1.44597 2.56777L3.53175 2.31025C4.60797 2.17229 5.65562 1.90557 6.64612 1.4917ZM4.94131 6.80766C4.24605 6.42138 3.55079 6.60532 3.07459 7.01919C2.26504 7.81015 3.01745 8.89541 4.01747 8.76665C4.32008 8.76194 4.58267 8.61472 4.84113 8.46981C5.08701 8.33196 5.32916 8.1962 5.59847 8.18723C5.79848 8.14125 5.92229 7.93891 5.86515 7.74577C5.79153 7.24021 5.42283 7.05353 5.09696 6.88854C5.04342 6.86144 4.99104 6.83491 4.94131 6.80766ZM4.86512 12.0592H4.8556C7.08423 13.8435 10.2939 13.3284 10.9605 10.4497C9.20811 11.535 7.03661 12.4731 4.86512 12.0592ZM9.08364 7.36091C9.38285 7.35746 9.68699 7.35396 9.95099 7.21233C10.8748 6.81686 10.951 5.51086 9.82717 5.23494C9.20811 5.10618 8.51285 5.29013 8.11283 5.97072C8.08484 6.01834 8.05424 6.06669 8.02295 6.11612C7.83071 6.41981 7.61281 6.76404 7.81759 7.23073C7.87473 7.42387 8.08426 7.54343 8.28427 7.48825C8.52067 7.36739 8.79994 7.36417 9.08364 7.36091ZM16.4349 7.11744C16.0991 7.26741 15.7161 7.43849 15.6173 7.93906C15.604 7.97759 15.5979 8.01649 15.5982 8.05451C15.5971 8.20439 15.7013 8.34678 15.8554 8.39886C16.1242 8.42571 16.3591 8.57229 16.5975 8.72104C16.8492 8.87803 17.1047 9.03744 17.4079 9.06106C18.1772 9.19549 18.8338 8.60599 18.7445 7.94998C18.7202 7.75039 18.6267 7.54436 18.446 7.35044C17.9888 6.91818 17.3126 6.69745 16.5888 7.04694C16.5395 7.07072 16.4878 7.09382 16.4349 7.11744ZM13.5587 6.20785C13.7337 6.51778 13.9304 6.86631 13.7024 7.32242C13.6548 7.45118 13.5405 7.54315 13.4072 7.57074C13.35 7.21205 13.2643 6.85337 13.1691 6.50388L12.8643 5.40942C13.1024 5.54737 13.3214 5.74971 13.4738 6.05322C13.5 6.10385 13.5291 6.15534 13.5587 6.20785ZM13.5 11C14.7 11.2759 15.256 12.3627 15.675 13.1536H15.656C14.9417 12.4638 14.1215 12.434 13.1691 12.1949C13.2262 12.0385 13.4619 11.1656 13.5 11Z" fill="#F7F5F9"/>
</svg>
