<svg width="23" height="16" viewBox="0 0 23 16" fill="none" xmlns="http://www.w3.org/2000/svg">
<path d="M11.0947 14.2942C9.98584 14.9457 8.72449 15.2927 7.43838 15.3001C6.15227 15.3074 4.88705 14.9749 3.77078 14.336C2.65452 13.6972 1.72684 12.7748 1.08166 11.6622C0.43647 10.5496 0.0966797 9.28633 0.0966797 8.0002C0.0966797 6.71406 0.43647 5.45076 1.08166 4.33816C1.72684 3.22557 2.65452 2.30317 3.77078 1.66435C4.88705 1.02554 6.15227 0.692967 7.43838 0.700314C8.72449 0.707662 9.98584 1.05466 11.0947 1.7062C12.2036 1.05466 13.465 0.707662 14.7511 0.700314C16.0372 0.692967 17.3024 1.02554 18.4187 1.66435C19.5349 2.30317 20.4626 3.22557 21.1078 4.33816C21.753 5.45076 22.0928 6.71406 22.0928 8.0002C22.0928 9.28633 21.753 10.5496 21.1078 11.6622C20.4626 12.7748 19.5349 13.6972 18.4187 14.336C17.3024 14.9749 16.0372 15.3074 14.7511 15.3001C13.465 15.2927 12.2036 14.9457 11.0947 14.2942ZM12.7967 12.9102C13.6014 13.2372 14.4741 13.3615 15.3381 13.272C16.2021 13.1825 17.0308 12.8821 17.7514 12.3971C18.472 11.9122 19.0624 11.2575 19.4705 10.4908C19.8787 9.72407 20.0922 8.86879 20.0922 8.0002C20.0922 7.1316 19.8787 6.27632 19.4705 5.5096C19.0624 4.74289 18.472 4.08824 17.7514 3.60327C17.0308 3.11829 16.2021 2.81785 15.3381 2.72838C14.4741 2.63892 13.6014 2.76317 12.7967 3.0902C14.0203 4.43246 14.6973 6.18395 14.6947 8.0002C14.6947 9.8902 13.9757 11.6142 12.7967 12.9102ZM9.39273 3.0902C8.58805 2.76317 7.71533 2.63892 6.85135 2.72838C5.98738 2.81785 5.15863 3.11829 4.43804 3.60327C3.71744 4.08824 3.12708 4.74289 2.71891 5.5096C2.31074 6.27632 2.09726 7.1316 2.09726 8.0002C2.09726 8.86879 2.31074 9.72407 2.71891 10.4908C3.12708 11.2575 3.71744 11.9122 4.43804 12.3971C5.15863 12.8821 5.98738 13.1825 6.85135 13.272C7.71533 13.3615 8.58805 13.2372 9.39273 12.9102C8.16918 11.5679 7.49213 9.81644 7.49473 8.0002C7.49473 6.1102 8.21373 4.3862 9.39273 3.0902ZM11.0947 4.2052C10.5876 4.69844 10.1846 5.2885 9.90977 5.94039C9.63493 6.59229 9.49379 7.29273 9.49473 8.0002C9.49473 9.4882 10.1077 10.8322 11.0947 11.7952C11.6019 11.302 12.0048 10.7119 12.2797 10.06C12.5545 9.4081 12.6957 8.70766 12.6947 8.0002C12.6957 7.29273 12.5545 6.59229 12.2797 5.94039C12.0048 5.2885 11.6019 4.69844 11.0947 4.2052Z" fill="white" fill-opacity="0.5"></path>
</svg>