<svg xmlns="http://www.w3.org/2000/svg" xmlns:xlink="http://www.w3.org/1999/xlink"><defs><style>
    .sprite-symbol-usage {display: none;}
    .sprite-symbol-usage:target {display: inline;}
  </style><symbol viewBox="0 0 15 14" fill="none" id="clock">
  <g clip-path="url(#clock_clip0_2_376)">
    <path d="M7.49999 12.8334C4.27824 12.8334 1.66666 10.2218 1.66666 7.00008C1.66666 3.77833 4.27824 1.16675 7.49999 1.16675C10.7217 1.16675 13.3333 3.77833 13.3333 7.00008C13.3333 10.2218 10.7217 12.8334 7.49999 12.8334ZM7.49999 11.6667C8.73767 11.6667 9.92465 11.1751 10.7998 10.2999C11.675 9.42474 12.1667 8.23776 12.1667 7.00008C12.1667 5.7624 11.675 4.57542 10.7998 3.70025C9.92465 2.82508 8.73767 2.33341 7.49999 2.33341C6.26231 2.33341 5.07533 2.82508 4.20016 3.70025C3.32499 4.57542 2.83332 5.7624 2.83332 7.00008C2.83332 8.23776 3.32499 9.42474 4.20016 10.2999C5.07533 11.1751 6.26231 11.6667 7.49999 11.6667ZM8.08332 7.00008H10.4167V8.16675H6.91666V4.08341H8.08332V7.00008Z" fill="#F7F5F9" />
  </g>
  <defs>
    
  </defs>
</symbol><clipPath id="clock_clip0_2_376">
      <rect width="14" height="14" fill="white" transform="translate(0.5)" />
    </clipPath><symbol viewBox="0 0 24 25" fill="none" id="facebook">
<path d="M14 14.207H16.5L17.5 10.207H14V8.20703C14 7.17703 14 6.20703 16 6.20703H17.5V2.84703C17.174 2.80403 15.943 2.70703 14.643 2.70703C11.928 2.70703 10 4.36403 10 7.40703V10.207H7V14.207H10V22.707H14V14.207Z" fill="#F7F5F9" />
</symbol><symbol viewBox="0 0 24 25" fill="none" id="instagram">
<path d="M12 2.70703C14.717 2.70703 15.056 2.71703 16.122 2.76703C17.187 2.81703 17.912 2.98403 18.55 3.23203C19.21 3.48603 19.766 3.83003 20.322 4.38503C20.8305 4.88493 21.224 5.48962 21.475 6.15703C21.722 6.79403 21.89 7.52003 21.94 8.58503C21.987 9.65103 22 9.99003 22 12.707C22 15.424 21.99 15.763 21.94 16.829C21.89 17.894 21.722 18.619 21.475 19.257C21.2247 19.9248 20.8311 20.5296 20.322 21.029C19.822 21.5374 19.2173 21.9308 18.55 22.182C17.913 22.429 17.187 22.597 16.122 22.647C15.056 22.694 14.717 22.707 12 22.707C9.283 22.707 8.944 22.697 7.878 22.647C6.813 22.597 6.088 22.429 5.45 22.182C4.78233 21.9315 4.17753 21.538 3.678 21.029C3.16941 20.5292 2.77593 19.9245 2.525 19.257C2.277 18.62 2.11 17.894 2.06 16.829C2.013 15.763 2 15.424 2 12.707C2 9.99003 2.01 9.65103 2.06 8.58503C2.11 7.51903 2.277 6.79503 2.525 6.15703C2.77524 5.48921 3.1688 4.88435 3.678 4.38503C4.17767 3.87626 4.78243 3.48276 5.45 3.23203C6.088 2.98403 6.812 2.81703 7.878 2.76703C8.944 2.72003 9.283 2.70703 12 2.70703ZM12 7.70703C10.6739 7.70703 9.40215 8.23382 8.46447 9.1715C7.52678 10.1092 7 11.3809 7 12.707C7 14.0331 7.52678 15.3049 8.46447 16.2426C9.40215 17.1802 10.6739 17.707 12 17.707C13.3261 17.707 14.5979 17.1802 15.5355 16.2426C16.4732 15.3049 17 14.0331 17 12.707C17 11.3809 16.4732 10.1092 15.5355 9.1715C14.5979 8.23382 13.3261 7.70703 12 7.70703ZM18.5 7.45703C18.5 7.12551 18.3683 6.80757 18.1339 6.57315C17.8995 6.33873 17.5815 6.20703 17.25 6.20703C16.9185 6.20703 16.6005 6.33873 16.3661 6.57315C16.1317 6.80757 16 7.12551 16 7.45703C16 7.78855 16.1317 8.10649 16.3661 8.34091C16.6005 8.57534 16.9185 8.70703 17.25 8.70703C17.5815 8.70703 17.8995 8.57534 18.1339 8.34091C18.3683 8.10649 18.5 7.78855 18.5 7.45703ZM12 9.70703C12.7956 9.70703 13.5587 10.0231 14.1213 10.5857C14.6839 11.1483 15 11.9114 15 12.707C15 13.5027 14.6839 14.2657 14.1213 14.8284C13.5587 15.391 12.7956 15.707 12 15.707C11.2044 15.707 10.4413 15.391 9.87868 14.8284C9.31607 14.2657 9 13.5027 9 12.707C9 11.9114 9.31607 11.1483 9.87868 10.5857C10.4413 10.0231 11.2044 9.70703 12 9.70703Z" fill="#F7F5F9" />
</symbol><symbol viewBox="0 0 14 14" fill="none" id="key">
  <path fill-rule="evenodd" clip-rule="evenodd" d="M11.8375 0.754395L12.6624 1.57935L11.9082 2.33354L13.6582 4.08354L10.7916 6.95017L9.0416 5.20016L7.43951 6.80225C7.61886 7.04482 7.76904 7.30848 7.88643 7.5879C8.08011 8.04893 8.18069 8.54372 8.18236 9.04379C8.18404 9.54385 8.08678 10.0393 7.89619 10.5016C7.70559 10.964 7.42543 11.384 7.07183 11.7376C6.71823 12.0912 6.29818 12.3714 5.83586 12.562C5.37354 12.7526 4.87808 12.8498 4.37802 12.8481C3.87795 12.8465 3.38316 12.7459 2.92213 12.5522C2.46109 12.3585 2.04293 12.0755 1.6917 11.7196L1.68733 11.7151C0.996645 11 0.61449 10.0422 0.623129 9.04806C0.631768 8.0539 1.03053 7.1029 1.73354 6.39989C2.43654 5.69689 3.38754 5.29812 4.3817 5.28948C5.18252 5.28252 5.95973 5.52915 6.60551 5.98634L11.8375 0.754395ZM11.0833 3.1585L9.86656 4.37521L10.7916 5.30025L12.0083 4.08354L11.0833 3.1585ZM6.26597 7.21963L6.23827 7.19288C5.74319 6.71471 5.08011 6.45012 4.39184 6.45611C3.70358 6.46209 3.04519 6.73816 2.5585 7.22485C2.0718 7.71155 1.79573 8.36993 1.78975 9.0582C1.78378 9.74543 2.04756 10.4076 2.52437 10.9024C2.76707 11.1478 3.05578 11.3429 3.374 11.4766C3.69318 11.6107 4.03573 11.6803 4.38193 11.6815C4.72812 11.6826 5.07113 11.6153 5.3912 11.4834C5.71127 11.3514 6.00207 11.1574 6.24687 10.9126C6.49167 10.6678 6.68563 10.377 6.81758 10.057C6.94953 9.7369 7.01686 9.39389 7.0157 9.0477C7.01454 8.7015 6.94491 8.35895 6.81082 8.03977C6.68251 7.73435 6.4976 7.4561 6.26597 7.21963Z" fill="currentColor" />
</symbol><symbol viewBox="0 0 24 25" fill="none" id="linkedin">
<g clip-path="url(#linkedin_clip0_2813_648)">
<path d="M6.94 5.70705C6.93974 6.23749 6.72877 6.74609 6.35351 7.12098C5.97825 7.49586 5.46944 7.70632 4.939 7.70606C4.40857 7.70579 3.89997 7.49482 3.52508 7.11956C3.1502 6.7443 2.93974 6.23549 2.94 5.70505C2.94027 5.17462 3.15124 4.66602 3.5265 4.29113C3.90176 3.91625 4.41057 3.70579 4.941 3.70605C5.47144 3.70632 5.98004 3.91729 6.35492 4.29255C6.72981 4.66781 6.94027 5.17662 6.94 5.70705ZM7 9.18705H3V21.7071H7V9.18705ZM13.32 9.18705H9.34V21.7071H13.28V15.1371C13.28 11.4771 18.05 11.1371 18.05 15.1371V21.7071H22V13.7771C22 7.60705 14.94 7.83706 13.28 10.8671L13.32 9.18705Z" fill="#F7F5F9" />
</g>
<defs>

</defs>
</symbol><clipPath id="linkedin_clip0_2813_648">
<rect width="24" height="24" fill="white" transform="translate(0 0.707031)" />
</clipPath><symbol viewBox="0 0 24 25" fill="none" id="pinterest">
<path d="M13.37 2.80111C10.9772 2.47196 8.54622 3.01966 6.5258 4.34307C4.50538 5.66647 3.03202 7.67621 2.37777 10.0012C1.72353 12.3261 1.93258 14.8093 2.96634 16.9922C4.00009 19.175 5.78873 20.9101 8.00197 21.8771C7.94212 21.1089 7.99706 20.3361 8.16497 19.5841C8.34997 18.7451 9.46097 14.1211 9.46097 14.1211C9.23974 13.6252 9.12918 13.0871 9.13697 12.5441C9.13697 11.0591 9.99397 9.95111 11.06 9.95111C11.2515 9.94832 11.4413 9.9868 11.6166 10.0639C11.792 10.1411 11.9486 10.2551 12.0759 10.3981C12.2032 10.5412 12.2983 10.71 12.3545 10.8931C12.4108 11.0762 12.427 11.2692 12.402 11.4591C12.402 12.3591 11.824 13.7211 11.522 14.9991C11.4623 15.2335 11.4585 15.4786 11.5109 15.7147C11.5633 15.9508 11.6705 16.1713 11.8237 16.3584C11.977 16.5456 12.172 16.6941 12.3932 16.792C12.6144 16.8899 12.8554 16.9344 13.097 16.9221C14.995 16.9221 16.267 14.4911 16.267 11.6211C16.267 9.42111 14.81 7.77311 12.124 7.77311C11.4813 7.74814 10.8404 7.85403 10.2399 8.08436C9.63946 8.31469 9.09209 8.66465 8.63102 9.113C8.16996 9.56134 7.80483 10.0987 7.5578 10.6925C7.31076 11.2863 7.18698 11.924 7.19397 12.5671C7.16534 13.2804 7.39548 13.9801 7.84197 14.5371C7.92541 14.5994 7.98633 14.6871 8.01555 14.787C8.04477 14.887 8.04071 14.9937 8.00397 15.0911C7.95797 15.2751 7.84197 15.7141 7.79597 15.8751C7.7864 15.9297 7.76415 15.9813 7.731 16.0257C7.69784 16.0701 7.65472 16.1062 7.6051 16.1309C7.55549 16.1556 7.50076 16.1683 7.44533 16.168C7.3899 16.1677 7.33531 16.1544 7.28597 16.1291C5.90197 15.5751 5.24997 14.0521 5.24997 12.3131C5.24997 9.46611 7.63397 6.05811 12.404 6.05811C16.2 6.05811 18.724 8.83511 18.724 11.8051C18.724 15.7141 16.547 18.6531 13.33 18.6531C12.8492 18.6685 12.3722 18.5624 11.9433 18.3446C11.5144 18.1268 11.1473 17.8044 10.876 17.4071C10.876 17.4071 10.298 19.7231 10.184 20.1611C9.95127 20.9178 9.60788 21.6359 9.16497 22.2921C10.088 22.5721 11.047 22.7121 12.011 22.7081C13.3246 22.7092 14.6254 22.4511 15.8391 21.9487C17.0528 21.4463 18.1555 20.7094 19.084 19.7802C20.0126 18.8511 20.7487 17.7479 21.2502 16.5338C21.7518 15.3198 22.0089 14.0187 22.007 12.7051C22.0057 10.2901 21.1308 7.9571 19.5436 6.13689C17.9564 4.31667 15.7643 3.13217 13.372 2.80211L13.37 2.80111Z" fill="#F7F5F9" />
</symbol><symbol viewBox="0 0 14 14" fill="none" id="players">
<path d="M11.6666 13.4167H10.5V12.2501C10.5 11.786 10.3156 11.3408 9.98742 11.0126C9.65923 10.6845 9.21411 10.5001 8.74998 10.5001H5.24998C4.78585 10.5001 4.34073 10.6845 4.01254 11.0126C3.68435 11.3408 3.49998 11.786 3.49998 12.2501V13.4167H2.33331V12.2501C2.33331 11.4765 2.6406 10.7347 3.18758 10.1877C3.73457 9.64071 4.47643 9.33341 5.24998 9.33341H8.74998C9.52353 9.33341 10.2654 9.64071 10.8124 10.1877C11.3594 10.7347 11.6666 11.4765 11.6666 12.2501V13.4167ZM6.99998 8.16675C6.54035 8.16675 6.08523 8.07622 5.66059 7.90033C5.23595 7.72443 4.85011 7.46663 4.52511 7.14162C4.2001 6.81662 3.94229 6.43078 3.7664 6.00614C3.59051 5.5815 3.49998 5.12637 3.49998 4.66675C3.49998 4.20712 3.59051 3.752 3.7664 3.32736C3.94229 2.90272 4.2001 2.51688 4.52511 2.19187C4.85011 1.86687 5.23595 1.60906 5.66059 1.43317C6.08523 1.25728 6.54035 1.16675 6.99998 1.16675C7.92824 1.16675 8.81848 1.5355 9.47485 2.19187C10.1312 2.84825 10.5 3.73849 10.5 4.66675C10.5 5.59501 10.1312 6.48524 9.47485 7.14162C8.81848 7.798 7.92824 8.16675 6.99998 8.16675V8.16675ZM6.99998 7.00008C7.61882 7.00008 8.21231 6.75425 8.6499 6.31666C9.08748 5.87908 9.33331 5.28559 9.33331 4.66675C9.33331 4.04791 9.08748 3.45442 8.6499 3.01683C8.21231 2.57925 7.61882 2.33341 6.99998 2.33341C6.38114 2.33341 5.78765 2.57925 5.35006 3.01683C4.91248 3.45442 4.66665 4.04791 4.66665 4.66675C4.66665 5.28559 4.91248 5.87908 5.35006 6.31666C5.78765 6.75425 6.38114 7.00008 6.99998 7.00008V7.00008Z" fill="#F7F5F9" />
</symbol><symbol viewBox="0 0 24 25" fill="none" id="youtube">
<path d="M21.5879 7.8982C21.3575 7.04138 20.6819 6.36597 19.8252 6.13525C18.2602 5.70703 11.9998 5.70703 11.9998 5.70703C11.9998 5.70703 5.73963 5.70703 4.17456 6.11902C3.33435 6.34949 2.64234 7.04151 2.41187 7.8982C2 9.46314 2 12.7086 2 12.7086C2 12.7086 2 15.9705 2.41187 17.5191C2.64258 18.3758 3.31787 19.0512 4.17469 19.2819C5.75611 19.7102 12 19.7102 12 19.7102C12 19.7102 18.2602 19.7102 19.8252 19.2982C20.682 19.0677 21.3575 18.3922 21.5882 17.5355C21.9999 15.9705 21.9999 12.7251 21.9999 12.7251C21.9999 12.7251 22.0164 9.46314 21.5879 7.8982ZM10.0066 15.7069V9.71034L15.2124 12.7086L10.0066 15.7069Z" fill="#F7F5F9" />
</symbol></defs><use id="clock-usage" xlink:href="#clock" class="sprite-symbol-usage" /><use id="facebook-usage" xlink:href="#facebook" class="sprite-symbol-usage" /><use id="instagram-usage" xlink:href="#instagram" class="sprite-symbol-usage" /><use id="key-usage" xlink:href="#key" class="sprite-symbol-usage" /><use id="linkedin-usage" xlink:href="#linkedin" class="sprite-symbol-usage" /><use id="pinterest-usage" xlink:href="#pinterest" class="sprite-symbol-usage" /><use id="players-usage" xlink:href="#players" class="sprite-symbol-usage" /><use id="youtube-usage" xlink:href="#youtube" class="sprite-symbol-usage" /></svg>