<svg width="42" height="14" viewBox="0 0 42 14" fill="none" xmlns="http://www.w3.org/2000/svg">
<path fill-rule="evenodd" clip-rule="evenodd" d="M19.6367 13.0056C20.4666 13.6273 21.9269 14 23.5421 14C26.8941 14 29.143 12.1069 29.143 9.29049C29.143 7.75094 28.243 6.52855 26.3985 5.56022C25.3615 4.98207 24.7361 4.59189 24.7361 4.10128C24.7361 3.64239 25.2197 3.14716 26.3595 3.14716C27.4686 3.14716 28.3246 3.58094 28.4806 3.6675L28.8849 3.88984L30.0165 0.858316L29.7185 0.695109C28.8744 0.22928 27.8221 0 26.5082 0C23.298 0 21.0564 1.87389 21.0564 4.55687C21.0564 6.50411 22.5876 7.58477 23.9306 8.30862C25.1969 8.96375 25.4441 9.3384 25.4441 9.76425C25.4441 10.579 24.561 10.871 23.8064 10.871C22.8202 10.871 21.7941 10.5909 20.9899 10.1095L20.5902 9.86931L19.3926 12.8206L19.6367 13.0056ZM4.0732 13.806L2.54092 2.82165L6.2593 5.1584L0 0.205408H6.01581L6.6237 6.66458C6.69936 7.43304 6.76213 8.18629 6.81994 8.96069C7.13314 8.21801 7.49722 7.40694 7.91944 6.51195L10.9001 0.205078H14.8573L7.84014 13.806H4.0732ZM20.1395 0.205078L17.5596 13.8057H14.0146L16.5982 0.205078H20.1395ZM34.0811 10.4824L32.5594 13.806H28.7637L35.3838 0.205078H39.4996L41.0947 13.806H37.4153L37.1493 10.4824H34.0811ZM36.6868 4.38631C36.5451 4.75039 36.3994 5.09563 36.2576 5.40189L35.2467 7.6002H36.967L36.7565 5.27436C36.7458 5.12526 36.7328 4.9637 36.719 4.79259C36.7085 4.66228 36.6975 4.52643 36.6868 4.38631Z" fill="white" fill-opacity="0.5"></path>
</svg>